<svg width="116" height="120" viewBox="0 0 116 120" fill='currentColor' xmlns="http://www.w3.org/2000/svg"
     xmlns:xlink="http://www.w3.org/1999/xlink">

    <g id="mainLogo">
        <g clip-path="url(#clip0_12_1902)">
            <path d="M451.721 243.034C451.786 300.821 430.915 356.384 393.495 398.043C391.238 400.571 388.922 403.038 386.544 405.444C382.921 409.132 379.177 412.676 375.311 416.078C339.145 447.966 293.996 465.884 247.148 466.943C245.587 466.981 244.02 467 242.447 467C205.084 467 158.091 445.643 115.445 416.078C111.916 413.633 108.419 411.13 104.954 408.571C103.334 407.386 101.722 406.184 100.118 404.965C83.6696 392.536 68.0571 378.886 53.3952 364.117C43.7956 354.475 34.7936 344.174 26.4467 333.279C-6.32156 290.022 -13.5491 251.046 33.1676 243.034C38.6987 242.089 44.0668 241.078 49.2719 240.002C56.8117 238.451 64.0274 236.777 70.9191 234.978C80.2024 232.564 88.9241 229.946 97.0842 227.124C99.8292 226.178 102.511 225.214 105.131 224.23C143.854 209.675 169.772 190.694 187.413 170.1C190.406 166.614 193.164 163.086 195.689 159.516C199.553 154.082 203.062 148.37 206.192 142.42C210.512 134.154 214.141 125.494 217.036 116.543L217.195 116.052C231.232 72.7197 226.961 32.5271 242.447 19.0749C308.643 -38.4342 391.056 43.464 429.738 140.044C431.688 144.91 433.522 149.806 435.24 154.731C436.011 156.931 436.756 159.136 437.472 161.344C439.357 167.099 441.067 172.869 442.603 178.654C443.192 180.86 443.753 183.065 444.287 185.267C444.859 187.643 445.407 190.014 445.913 192.384C449.677 209.738 451.721 226.853 451.721 243.034Z"
                  fill="#F2F2F2"/>
            <path d="M247.148 466.943C245.587 466.981 244.02 467 242.447 467C205.085 467 158.091 445.643 115.445 416.078C111.916 413.633 108.419 411.13 104.954 408.571L107.993 388.777L200.007 375.703L246.188 413.494L247.148 466.943Z"
                  fill="#2F2E41"/>
            <path d="M251.577 113.499H238.465C238.059 113.499 237.67 113.672 237.383 113.979C237.095 114.286 236.934 114.703 236.934 115.138V129.176C236.934 129.391 236.974 129.604 237.051 129.802C237.128 130 237.241 130.181 237.383 130.332C237.525 130.484 237.694 130.604 237.88 130.686C238.066 130.768 238.265 130.809 238.465 130.809H251.577C251.983 130.809 252.371 130.637 252.658 130.331C252.945 130.025 253.107 129.61 253.109 129.176V115.138C253.108 114.703 252.946 114.287 252.659 113.98C252.372 113.673 251.983 113.5 251.577 113.499Z"
                  fill="white"/>
            <path d="M251.577 137.421H238.465C238.059 137.422 237.67 137.594 237.383 137.902C237.095 138.209 236.934 138.626 236.934 139.06V153.099C236.934 153.314 236.974 153.526 237.051 153.725C237.128 153.923 237.241 154.103 237.383 154.255C237.525 154.407 237.694 154.527 237.88 154.609C238.066 154.69 238.265 154.732 238.465 154.731H251.577C251.983 154.732 252.371 154.56 252.658 154.254C252.945 153.948 253.107 153.532 253.109 153.099V139.06C253.108 138.626 252.946 138.21 252.659 137.903C252.372 137.596 251.983 137.423 251.577 137.421Z"
                  fill="#E6E6E6"/>
            <path d="M251.577 161.344H238.465C238.059 161.344 237.67 161.517 237.383 161.824C237.095 162.132 236.934 162.548 236.934 162.983V177.015C236.933 177.231 236.973 177.444 237.05 177.643C237.126 177.842 237.239 178.023 237.382 178.175C237.524 178.327 237.693 178.448 237.879 178.53C238.065 178.612 238.264 178.654 238.465 178.654H251.577C251.983 178.654 252.373 178.481 252.66 178.174C252.947 177.867 253.109 177.45 253.109 177.015V162.983C253.108 162.549 252.946 162.133 252.659 161.825C252.372 161.518 251.983 161.345 251.577 161.344Z"
                  fill="#E6E6E6"/>
            <path d="M253.085 186.616C253.02 186.238 252.834 185.897 252.558 185.651C252.283 185.404 251.936 185.269 251.577 185.267H238.465C238.059 185.267 237.67 185.44 237.383 185.747C237.095 186.054 236.934 186.471 236.934 186.906V200.938C236.933 201.153 236.973 201.367 237.05 201.566C237.126 201.765 237.239 201.945 237.382 202.098C237.524 202.25 237.693 202.371 237.879 202.453C238.065 202.535 238.264 202.577 238.465 202.577H251.577C251.983 202.577 252.373 202.404 252.66 202.097C252.947 201.789 253.109 201.372 253.109 200.938V186.906C253.11 186.809 253.102 186.711 253.085 186.616Z"
                  fill="#E6E6E6"/>
            <path d="M252.172 209.316C251.984 209.232 251.781 209.189 251.577 209.189H238.465C238.264 209.189 238.065 209.231 237.879 209.313C237.693 209.396 237.524 209.516 237.382 209.669C237.239 209.821 237.127 210.002 237.05 210.201C236.973 210.4 236.934 210.613 236.934 210.828V224.861C236.933 225.076 236.972 225.29 237.049 225.489C237.125 225.688 237.238 225.869 237.38 226.022C237.523 226.174 237.692 226.295 237.878 226.377C238.064 226.459 238.264 226.501 238.465 226.5H251.577C251.983 226.499 252.373 226.327 252.66 226.019C252.947 225.712 253.109 225.295 253.109 224.861V210.828C253.108 210.506 253.019 210.191 252.853 209.922C252.686 209.653 252.45 209.442 252.172 209.316Z"
                  fill="#E6E6E6"/>
            <path d="M279.121 113.499H266.009C265.603 113.499 265.213 113.672 264.926 113.979C264.639 114.286 264.478 114.703 264.477 115.138V129.176C264.478 129.391 264.517 129.604 264.594 129.802C264.672 130 264.784 130.181 264.927 130.332C265.069 130.484 265.238 130.604 265.423 130.686C265.609 130.768 265.808 130.809 266.009 130.809H279.121C279.526 130.809 279.915 130.637 280.202 130.331C280.489 130.025 280.651 129.61 280.652 129.176V115.138C280.651 114.703 280.489 114.287 280.202 113.98C279.916 113.673 279.527 113.5 279.121 113.499Z"
                  fill="#E6E6E6"/>
            <path d="M279.121 137.421H266.009C265.603 137.422 265.213 137.594 264.926 137.902C264.639 138.209 264.478 138.626 264.477 139.06V153.099C264.478 153.314 264.517 153.526 264.594 153.725C264.672 153.923 264.784 154.103 264.927 154.255C265.069 154.407 265.238 154.527 265.423 154.609C265.609 154.69 265.808 154.732 266.009 154.731H279.121C279.526 154.732 279.915 154.56 280.202 154.254C280.489 153.948 280.651 153.532 280.652 153.099V139.06C280.651 138.626 280.489 138.21 280.202 137.903C279.916 137.596 279.527 137.423 279.121 137.421Z"
                  fill="#608AF5"/>
            <path d="M279.121 161.344H266.009C265.603 161.344 265.213 161.517 264.926 161.824C264.639 162.132 264.478 162.548 264.477 162.983V177.015C264.477 177.231 264.516 177.444 264.593 177.643C264.67 177.842 264.783 178.023 264.925 178.175C265.067 178.327 265.236 178.448 265.422 178.53C265.608 178.612 265.808 178.654 266.009 178.654H279.121C279.527 178.654 279.916 178.481 280.204 178.174C280.491 177.867 280.652 177.45 280.652 177.015V162.983C280.651 162.549 280.489 162.133 280.202 161.825C279.916 161.518 279.527 161.345 279.121 161.344Z"
                  fill="#608AF5"/>
            <path d="M279.121 185.267H266.009C265.688 185.267 265.375 185.376 265.115 185.577C264.855 185.778 264.66 186.062 264.56 186.389C264.505 186.555 264.477 186.73 264.477 186.906V200.938C264.477 201.153 264.516 201.367 264.593 201.566C264.67 201.765 264.783 201.945 264.925 202.098C265.067 202.25 265.236 202.371 265.422 202.453C265.608 202.535 265.808 202.577 266.009 202.577H279.121C279.527 202.577 279.916 202.404 280.204 202.097C280.491 201.789 280.652 201.372 280.652 200.938V186.906C280.651 186.471 280.489 186.055 280.202 185.748C279.915 185.441 279.527 185.268 279.121 185.267Z"
                  fill="#608AF5"/>
            <path d="M279.121 209.189H266.009C265.808 209.189 265.608 209.231 265.422 209.313C265.236 209.396 265.067 209.516 264.925 209.669C264.783 209.821 264.67 210.002 264.593 210.201C264.516 210.4 264.477 210.613 264.477 210.828V224.861C264.477 225.076 264.516 225.289 264.593 225.488C264.67 225.687 264.783 225.868 264.925 226.02C265.067 226.173 265.236 226.293 265.422 226.376C265.608 226.458 265.808 226.5 266.009 226.5H279.121C279.527 226.499 279.916 226.327 280.204 226.019C280.491 225.712 280.652 225.295 280.652 224.861V210.828C280.652 210.394 280.491 209.977 280.204 209.67C279.916 209.362 279.527 209.19 279.121 209.189Z"
                  fill="#E6E6E6"/>
            <path d="M306.664 113.499H293.552C293.146 113.499 292.757 113.672 292.47 113.979C292.183 114.286 292.021 114.703 292.021 115.138V129.176C292.021 129.391 292.061 129.604 292.138 129.802C292.215 130 292.328 130.181 292.47 130.332C292.612 130.484 292.781 130.604 292.967 130.686C293.153 130.768 293.352 130.809 293.552 130.809H306.664C307.069 130.809 307.458 130.637 307.745 130.331C308.032 130.025 308.194 129.61 308.196 129.176V115.138C308.195 114.703 308.033 114.287 307.746 113.98C307.459 113.673 307.07 113.5 306.664 113.499Z"
                  fill="#608AF5"/>
            <path d="M306.664 137.421H293.552C293.146 137.422 292.757 137.594 292.47 137.902C292.182 138.209 292.021 138.626 292.021 139.06V153.099C292.021 153.314 292.061 153.526 292.138 153.725C292.215 153.923 292.328 154.103 292.47 154.255C292.612 154.407 292.781 154.527 292.967 154.609C293.153 154.69 293.352 154.732 293.552 154.731H306.664C307.069 154.732 307.458 154.56 307.745 154.254C308.032 153.948 308.194 153.532 308.196 153.099V139.06C308.195 138.626 308.033 138.21 307.746 137.903C307.459 137.596 307.07 137.423 306.664 137.421Z"
                  fill="#608AF5"/>
            <path d="M306.664 161.344H293.552C293.146 161.344 292.757 161.517 292.47 161.824C292.182 162.132 292.021 162.548 292.021 162.983V177.015C292.021 177.231 292.06 177.444 292.137 177.643C292.213 177.842 292.326 178.023 292.469 178.175C292.611 178.327 292.78 178.448 292.966 178.53C293.152 178.612 293.351 178.654 293.552 178.654H306.664C307.07 178.654 307.46 178.481 307.747 178.174C308.034 177.867 308.196 177.45 308.196 177.015V162.983C308.195 162.549 308.033 162.133 307.746 161.825C307.459 161.518 307.07 161.345 306.664 161.344Z"
                  fill="#E6E6E6"/>
            <path d="M306.664 185.267H293.552C293.146 185.267 292.757 185.44 292.47 185.747C292.183 186.054 292.021 186.471 292.021 186.906V200.938C292.02 201.153 292.06 201.367 292.137 201.566C292.213 201.765 292.326 201.945 292.469 202.098C292.611 202.25 292.78 202.371 292.966 202.453C293.152 202.535 293.351 202.577 293.552 202.577H306.664C307.07 202.577 307.46 202.404 307.747 202.097C308.034 201.789 308.196 201.372 308.196 200.938V186.906C308.195 186.471 308.033 186.055 307.746 185.748C307.459 185.441 307.07 185.268 306.664 185.267Z"
                  fill="#608AF5"/>
            <path d="M306.664 209.189H293.552C293.351 209.189 293.152 209.231 292.966 209.313C292.78 209.396 292.611 209.516 292.469 209.669C292.326 209.821 292.213 210.002 292.137 210.201C292.06 210.4 292.021 210.613 292.021 210.828V224.861C292.021 225.076 292.06 225.289 292.137 225.488C292.213 225.687 292.326 225.868 292.469 226.02C292.611 226.173 292.78 226.293 292.966 226.376C293.152 226.458 293.351 226.5 293.552 226.5H306.664C307.07 226.499 307.46 226.327 307.747 226.019C308.034 225.712 308.196 225.295 308.196 224.861V210.828C308.196 210.394 308.034 209.977 307.747 209.67C307.46 209.362 307.07 209.19 306.664 209.189Z"
                  fill="#608AF5"/>
            <path d="M334.208 113.499H321.096C320.69 113.499 320.3 113.672 320.013 113.979C319.726 114.286 319.564 114.703 319.564 115.138V129.176C319.564 129.391 319.604 129.604 319.681 129.802C319.758 130 319.871 130.181 320.014 130.332C320.156 130.484 320.325 130.604 320.51 130.686C320.696 130.768 320.895 130.809 321.096 130.809H334.208C334.613 130.809 335.002 130.637 335.289 130.331C335.576 130.025 335.738 129.61 335.739 129.176V115.138C335.738 114.703 335.576 114.287 335.289 113.98C335.002 113.673 334.614 113.5 334.208 113.499Z"
                  fill="#608AF5"/>
            <path d="M334.208 137.421H321.096C320.69 137.422 320.3 137.594 320.013 137.902C319.726 138.209 319.564 138.626 319.564 139.06V153.099C319.564 153.314 319.604 153.526 319.681 153.725C319.758 153.923 319.871 154.103 320.014 154.255C320.156 154.407 320.325 154.527 320.51 154.609C320.696 154.69 320.895 154.732 321.096 154.731H334.208C334.613 154.732 335.002 154.56 335.289 154.254C335.576 153.948 335.738 153.532 335.739 153.099V139.06C335.738 138.626 335.576 138.21 335.289 137.903C335.002 137.596 334.614 137.423 334.208 137.421Z"
                  fill="white"/>
            <path d="M334.208 161.344H321.096C320.69 161.344 320.3 161.517 320.013 161.824C319.726 162.132 319.564 162.548 319.564 162.983V177.015C319.564 177.231 319.603 177.444 319.68 177.643C319.757 177.842 319.87 178.023 320.012 178.175C320.154 178.327 320.323 178.448 320.509 178.53C320.695 178.612 320.894 178.654 321.096 178.654H334.208C334.614 178.654 335.003 178.481 335.29 178.174C335.578 177.867 335.739 177.45 335.739 177.015V162.983C335.738 162.549 335.576 162.133 335.289 161.825C335.002 161.518 334.614 161.345 334.208 161.344Z"
                  fill="white"/>
            <path d="M334.208 185.267H321.096C320.69 185.267 320.3 185.44 320.013 185.747C319.726 186.054 319.564 186.471 319.564 186.906V200.938C319.564 201.153 319.603 201.367 319.68 201.566C319.757 201.765 319.87 201.945 320.012 202.098C320.154 202.25 320.323 202.371 320.509 202.453C320.695 202.535 320.894 202.577 321.096 202.577H334.208C334.614 202.577 335.003 202.404 335.29 202.097C335.578 201.789 335.739 201.372 335.739 200.938V186.906C335.738 186.471 335.576 186.055 335.289 185.748C335.002 185.441 334.614 185.268 334.208 185.267Z"
                  fill="#E6E6E6"/>
            <path d="M334.208 209.189H321.096C320.894 209.189 320.695 209.231 320.509 209.313C320.323 209.396 320.154 209.516 320.012 209.669C319.87 209.821 319.757 210.002 319.68 210.201C319.603 210.4 319.564 210.613 319.564 210.828V224.861C319.564 225.076 319.603 225.289 319.68 225.488C319.757 225.687 319.87 225.868 320.012 226.02C320.154 226.173 320.323 226.293 320.509 226.376C320.695 226.458 320.894 226.5 321.096 226.5H334.208C334.614 226.499 335.003 226.327 335.29 226.019C335.578 225.712 335.739 225.295 335.739 224.861V210.828C335.739 210.394 335.578 209.977 335.29 209.67C335.003 209.362 334.614 209.19 334.208 209.189Z"
                  fill="#608AF5"/>
            <path d="M361.751 113.499H348.633C348.228 113.5 347.84 113.674 347.554 113.981C347.268 114.288 347.108 114.704 347.108 115.138V129.176C347.108 129.609 347.269 130.024 347.555 130.33C347.841 130.637 348.229 130.809 348.633 130.809H361.751C362.156 130.809 362.545 130.637 362.832 130.331C363.119 130.025 363.281 129.61 363.283 129.176V115.138C363.282 114.703 363.12 114.287 362.833 113.98C362.546 113.673 362.157 113.5 361.751 113.499Z"
                  fill="white"/>
            <path d="M361.751 137.421H348.633C348.228 137.423 347.84 137.596 347.554 137.903C347.268 138.211 347.108 138.627 347.108 139.06V153.099C347.108 153.532 347.269 153.947 347.555 154.253C347.841 154.559 348.229 154.731 348.633 154.731H361.751C362.156 154.732 362.545 154.56 362.832 154.254C363.119 153.948 363.281 153.532 363.283 153.099V139.06C363.282 138.626 363.12 138.21 362.833 137.903C362.546 137.596 362.157 137.423 361.751 137.421Z"
                  fill="white"/>
            <path d="M361.751 161.344H348.633C348.228 161.346 347.84 161.519 347.554 161.826C347.268 162.133 347.108 162.549 347.108 162.983V177.015C347.107 177.23 347.146 177.443 347.223 177.642C347.299 177.84 347.411 178.021 347.553 178.173C347.695 178.325 347.863 178.446 348.048 178.529C348.234 178.611 348.433 178.654 348.633 178.654H361.751C362.157 178.654 362.547 178.481 362.834 178.174C363.121 177.867 363.283 177.45 363.283 177.015V162.983C363.282 162.549 363.12 162.133 362.833 161.825C362.546 161.518 362.157 161.345 361.751 161.344Z"
                  fill="white"/>
            <path d="M361.751 185.267H348.633C348.228 185.268 347.84 185.442 347.554 185.749C347.268 186.056 347.108 186.472 347.108 186.906V200.938C347.107 201.153 347.146 201.366 347.223 201.564C347.299 201.763 347.411 201.944 347.553 202.096C347.695 202.248 347.863 202.369 348.048 202.452C348.234 202.534 348.433 202.577 348.633 202.577H361.751C362.157 202.577 362.547 202.404 362.834 202.097C363.121 201.789 363.283 201.373 363.283 200.938V186.906C363.282 186.471 363.12 186.055 362.833 185.748C362.546 185.441 362.157 185.268 361.751 185.267Z"
                  fill="#608AF5"/>
            <path d="M361.751 209.189H348.633C348.433 209.19 348.234 209.232 348.048 209.315C347.863 209.397 347.695 209.518 347.553 209.67C347.411 209.823 347.299 210.003 347.223 210.202C347.146 210.401 347.107 210.614 347.108 210.828V224.861C347.107 225.075 347.146 225.288 347.223 225.487C347.299 225.686 347.411 225.866 347.553 226.019C347.695 226.171 347.863 226.292 348.048 226.374C348.234 226.457 348.433 226.499 348.633 226.5H361.751C362.157 226.499 362.547 226.327 362.834 226.019C363.121 225.712 363.283 225.295 363.283 224.861V210.828C363.283 210.394 363.121 209.977 362.834 209.67C362.547 209.362 362.157 209.19 361.751 209.189Z"
                  fill="#E6E6E6"/>
            <path d="M389.295 113.499H376.177C375.772 113.5 375.383 113.674 375.097 113.981C374.811 114.288 374.651 114.704 374.651 115.138V129.176C374.651 129.609 374.812 130.024 375.098 130.33C375.384 130.637 375.772 130.809 376.177 130.809H389.295C389.7 130.809 390.089 130.637 390.376 130.331C390.663 130.025 390.825 129.61 390.826 129.176V115.138C390.825 114.703 390.663 114.287 390.376 113.98C390.089 113.673 389.7 113.5 389.295 113.499Z"
                  fill="white"/>
            <path d="M389.295 137.421H376.177C375.772 137.423 375.383 137.596 375.097 137.903C374.811 138.211 374.651 138.627 374.651 139.06V153.099C374.651 153.532 374.812 153.947 375.098 154.253C375.384 154.559 375.772 154.731 376.177 154.731H389.295C389.7 154.732 390.089 154.56 390.376 154.254C390.663 153.948 390.825 153.532 390.826 153.099V139.06C390.825 138.626 390.663 138.21 390.376 137.903C390.089 137.596 389.7 137.423 389.295 137.421Z"
                  fill="white"/>
            <path d="M389.295 161.344H376.177C375.772 161.346 375.383 161.519 375.097 161.826C374.811 162.133 374.651 162.549 374.651 162.983V177.015C374.651 177.23 374.69 177.443 374.766 177.642C374.842 177.84 374.955 178.021 375.096 178.173C375.238 178.325 375.406 178.446 375.592 178.529C375.777 178.611 375.976 178.654 376.177 178.654H389.295C389.701 178.654 390.09 178.481 390.377 178.174C390.665 177.867 390.826 177.45 390.826 177.015V162.983C390.825 162.549 390.663 162.133 390.376 161.825C390.089 161.518 389.7 161.345 389.295 161.344Z"
                  fill="#608AF5"/>
            <path d="M389.295 185.267H376.177C375.772 185.268 375.383 185.442 375.097 185.749C374.812 186.056 374.651 186.472 374.651 186.906V200.938C374.651 201.153 374.69 201.366 374.766 201.564C374.842 201.763 374.955 201.944 375.096 202.096C375.238 202.248 375.406 202.369 375.592 202.452C375.777 202.534 375.976 202.577 376.177 202.577H389.295C389.701 202.577 390.09 202.404 390.377 202.097C390.665 201.789 390.826 201.373 390.826 200.938V186.906C390.825 186.471 390.663 186.055 390.376 185.748C390.089 185.441 389.7 185.268 389.295 185.267Z"
                  fill="#E6E6E6"/>
            <path d="M389.295 209.189H376.177C375.976 209.19 375.777 209.232 375.592 209.315C375.406 209.397 375.238 209.518 375.096 209.67C374.955 209.823 374.842 210.003 374.766 210.202C374.69 210.401 374.651 210.614 374.651 210.828V224.861C374.651 225.075 374.69 225.288 374.766 225.487C374.842 225.686 374.955 225.866 375.096 226.019C375.238 226.171 375.406 226.292 375.592 226.374C375.777 226.457 375.976 226.499 376.177 226.5H389.295C389.701 226.499 390.09 226.327 390.377 226.019C390.665 225.712 390.826 225.295 390.826 224.861V210.828C390.826 210.394 390.665 209.977 390.377 209.67C390.09 209.362 389.701 209.19 389.295 209.189Z"
                  fill="white"/>
            <path d="M416.838 113.499H403.72C403.315 113.5 402.927 113.674 402.641 113.981C402.355 114.288 402.194 114.704 402.195 115.138V129.176C402.195 129.609 402.355 130.024 402.641 130.33C402.928 130.637 403.316 130.809 403.72 130.809H416.838C417.243 130.809 417.632 130.637 417.919 130.331C418.206 130.025 418.368 129.61 418.37 129.176V115.138C418.368 114.703 418.207 114.287 417.92 113.98C417.633 113.673 417.244 113.5 416.838 113.499Z"
                  fill="#608AF5"/>
            <path d="M416.838 137.421H403.72C403.315 137.423 402.927 137.596 402.641 137.903C402.355 138.211 402.194 138.627 402.195 139.06V153.099C402.195 153.532 402.355 153.947 402.641 154.253C402.928 154.559 403.316 154.731 403.72 154.731H416.838C417.243 154.732 417.632 154.56 417.919 154.254C418.206 153.948 418.368 153.532 418.37 153.099V139.06C418.368 138.626 418.207 138.21 417.92 137.903C417.633 137.596 417.244 137.423 416.838 137.421Z"
                  fill="#608AF5"/>
            <path d="M416.838 161.344H403.72C403.315 161.346 402.927 161.519 402.641 161.826C402.355 162.133 402.194 162.549 402.195 162.983V177.015C402.194 177.23 402.233 177.443 402.309 177.642C402.386 177.84 402.498 178.021 402.64 178.173C402.782 178.325 402.95 178.446 403.135 178.529C403.321 178.611 403.519 178.654 403.72 178.654H416.838C417.244 178.654 417.634 178.481 417.921 178.174C418.208 177.867 418.369 177.45 418.37 177.015V162.983C418.368 162.549 418.207 162.133 417.92 161.825C417.633 161.518 417.244 161.345 416.838 161.344Z"
                  fill="#E6E6E6"/>
            <path d="M416.838 185.267H403.72C403.315 185.268 402.927 185.442 402.641 185.749C402.355 186.056 402.194 186.472 402.195 186.906V200.938C402.194 201.153 402.233 201.366 402.309 201.564C402.386 201.763 402.498 201.944 402.64 202.096C402.782 202.248 402.95 202.369 403.135 202.452C403.321 202.534 403.519 202.577 403.72 202.577H416.838C417.244 202.577 417.634 202.404 417.921 202.097C418.208 201.789 418.369 201.373 418.37 200.938V186.906C418.368 186.471 418.207 186.055 417.92 185.748C417.633 185.441 417.244 185.268 416.838 185.267Z"
                  fill="white"/>
            <path d="M416.838 209.189H403.72C403.519 209.19 403.321 209.232 403.135 209.315C402.95 209.397 402.782 209.518 402.64 209.67C402.498 209.823 402.386 210.003 402.309 210.202C402.233 210.401 402.194 210.614 402.195 210.828V224.861C402.194 225.075 402.233 225.288 402.309 225.487C402.386 225.686 402.498 225.866 402.64 226.019C402.782 226.171 402.95 226.292 403.135 226.374C403.321 226.457 403.519 226.499 403.72 226.5H416.838C417.244 226.499 417.634 226.327 417.921 226.019C418.208 225.712 418.369 225.295 418.37 224.861V210.828C418.369 210.394 418.208 209.977 417.921 209.67C417.634 209.362 417.244 209.19 416.838 209.189Z"
                  fill="#608AF5"/>
            <path d="M444.382 113.499H431.264C430.858 113.5 430.47 113.674 430.184 113.981C429.898 114.288 429.738 114.704 429.738 115.138V129.176C429.738 129.609 429.899 130.024 430.185 130.33C430.471 130.637 430.859 130.809 431.264 130.809H444.382C444.787 130.809 445.176 130.637 445.463 130.331C445.75 130.025 445.912 129.61 445.913 129.176V115.138C445.912 114.703 445.75 114.287 445.463 113.98C445.176 113.673 444.787 113.5 444.382 113.499Z"
                  fill="#608AF5"/>
            <path d="M444.382 137.421H431.264C430.858 137.423 430.47 137.596 430.184 137.903C429.898 138.211 429.738 138.627 429.738 139.06V153.099C429.738 153.532 429.899 153.947 430.185 154.253C430.471 154.559 430.859 154.731 431.264 154.731H444.382C444.787 154.732 445.176 154.56 445.463 154.254C445.75 153.948 445.912 153.532 445.913 153.099V139.06C445.912 138.626 445.75 138.21 445.463 137.903C445.176 137.596 444.787 137.423 444.382 137.421Z"
                  fill="#608AF5"/>
            <path d="M444.382 161.344H431.264C430.858 161.346 430.47 161.519 430.184 161.826C429.898 162.133 429.738 162.549 429.738 162.983V177.015C429.737 177.23 429.777 177.443 429.853 177.642C429.929 177.84 430.042 178.021 430.183 178.173C430.325 178.325 430.493 178.446 430.679 178.529C430.864 178.611 431.063 178.654 431.264 178.654H444.382C444.788 178.654 445.177 178.481 445.464 178.174C445.751 177.867 445.913 177.45 445.913 177.015V162.983C445.912 162.549 445.75 162.133 445.463 161.825C445.176 161.518 444.787 161.345 444.382 161.344Z"
                  fill="#E6E6E6"/>
            <path d="M444.382 185.267H431.264C430.858 185.268 430.47 185.442 430.184 185.749C429.898 186.056 429.738 186.472 429.738 186.906V200.938C429.737 201.153 429.777 201.366 429.853 201.564C429.929 201.763 430.042 201.944 430.183 202.096C430.325 202.248 430.493 202.369 430.679 202.452C430.864 202.534 431.063 202.577 431.264 202.577H444.382C444.788 202.577 445.177 202.404 445.464 202.097C445.751 201.789 445.913 201.373 445.913 200.938V186.906C445.912 186.471 445.75 186.055 445.463 185.748C445.176 185.441 444.787 185.268 444.382 185.267Z"
                  fill="#608AF5"/>
            <path d="M444.382 209.189H431.264C431.063 209.19 430.864 209.232 430.679 209.315C430.493 209.397 430.325 209.518 430.183 209.67C430.042 209.823 429.929 210.003 429.853 210.202C429.777 210.401 429.737 210.614 429.738 210.828V224.861C429.737 225.075 429.777 225.288 429.853 225.487C429.929 225.686 430.042 225.866 430.183 226.019C430.325 226.171 430.493 226.292 430.679 226.374C430.864 226.457 431.063 226.499 431.264 226.5H444.382C444.788 226.499 445.177 226.327 445.464 226.019C445.751 225.712 445.913 225.295 445.913 224.861V210.828C445.913 210.394 445.751 209.977 445.464 209.67C445.177 209.362 444.788 209.19 444.382 209.189Z"
                  fill="#608AF5"/>
            <path d="M471.925 113.499H458.807C458.402 113.5 458.014 113.674 457.728 113.981C457.442 114.288 457.281 114.704 457.282 115.138V129.176C457.282 129.609 457.442 130.024 457.728 130.33C458.015 130.637 458.403 130.809 458.807 130.809H471.925C472.33 130.809 472.719 130.637 473.006 130.331C473.293 130.025 473.455 129.61 473.456 129.176V115.138C473.455 114.703 473.294 114.287 473.007 113.98C472.72 113.673 472.331 113.5 471.925 113.499Z"
                  fill="#E6E6E6"/>
            <path d="M471.925 137.421H458.807C458.402 137.423 458.014 137.596 457.728 137.903C457.442 138.211 457.281 138.627 457.282 139.06V153.099C457.282 153.532 457.442 153.947 457.728 154.253C458.015 154.559 458.403 154.731 458.807 154.731H471.925C472.33 154.732 472.719 154.56 473.006 154.254C473.293 153.948 473.455 153.532 473.456 153.099V139.06C473.455 138.626 473.294 138.21 473.007 137.903C472.72 137.596 472.331 137.423 471.925 137.421Z"
                  fill="#608AF5"/>
            <path d="M471.925 161.344H458.807C458.402 161.346 458.014 161.519 457.728 161.826C457.442 162.133 457.281 162.549 457.282 162.983V177.015C457.281 177.23 457.32 177.443 457.396 177.642C457.473 177.84 457.585 178.021 457.727 178.173C457.868 178.325 458.037 178.446 458.222 178.529C458.408 178.611 458.606 178.654 458.807 178.654H471.925C472.331 178.654 472.721 178.481 473.008 178.174C473.295 177.867 473.456 177.45 473.456 177.015V162.983C473.455 162.549 473.294 162.133 473.007 161.825C472.72 161.518 472.331 161.345 471.925 161.344Z"
                  fill="#608AF5"/>
            <path d="M471.925 185.267H458.807C458.402 185.268 458.014 185.442 457.728 185.749C457.442 186.056 457.281 186.472 457.282 186.906V200.938C457.281 201.153 457.32 201.366 457.396 201.564C457.473 201.763 457.585 201.944 457.727 202.096C457.868 202.248 458.037 202.369 458.222 202.452C458.408 202.534 458.606 202.577 458.807 202.577H471.925C472.331 202.577 472.721 202.404 473.008 202.097C473.295 201.789 473.456 201.373 473.456 200.938V186.906C473.455 186.471 473.294 186.055 473.007 185.748C472.72 185.441 472.331 185.268 471.925 185.267Z"
                  fill="#608AF5"/>
            <path d="M471.925 209.189H458.807C458.606 209.19 458.408 209.232 458.222 209.315C458.037 209.397 457.868 209.518 457.727 209.67C457.585 209.823 457.473 210.003 457.396 210.202C457.32 210.401 457.281 210.614 457.282 210.828V224.861C457.281 225.075 457.32 225.288 457.396 225.487C457.473 225.686 457.585 225.866 457.727 226.019C457.868 226.171 458.037 226.292 458.222 226.374C458.408 226.457 458.606 226.499 458.807 226.5H471.925C472.331 226.499 472.721 226.327 473.008 226.019C473.295 225.712 473.456 225.295 473.456 224.861V210.828C473.456 210.394 473.295 209.977 473.008 209.67C472.721 209.362 472.331 209.19 471.925 209.189Z"
                  fill="#E6E6E6"/>
            <path d="M499.468 113.499H486.351C485.945 113.5 485.557 113.674 485.271 113.981C484.985 114.288 484.825 114.704 484.825 115.138V129.176C484.825 129.609 484.986 130.024 485.272 130.33C485.558 130.637 485.946 130.809 486.351 130.809H499.468C499.874 130.809 500.262 130.637 500.55 130.331C500.837 130.025 500.999 129.61 501 129.176V115.138C500.999 114.703 500.837 114.287 500.55 113.98C500.263 113.673 499.874 113.5 499.468 113.499Z"
                  fill="#E6E6E6"/>
            <path d="M499.468 137.421H486.351C485.945 137.423 485.557 137.596 485.271 137.903C484.985 138.211 484.825 138.627 484.825 139.06V153.099C484.825 153.532 484.986 153.947 485.272 154.253C485.558 154.559 485.946 154.731 486.351 154.731H499.468C499.874 154.732 500.262 154.56 500.55 154.254C500.837 153.948 500.999 153.532 501 153.099V139.06C500.999 138.626 500.837 138.21 500.55 137.903C500.263 137.596 499.874 137.423 499.468 137.421Z"
                  fill="#E6E6E6"/>
            <path d="M499.468 161.344H486.351C485.945 161.346 485.557 161.519 485.271 161.826C484.985 162.133 484.825 162.549 484.825 162.983V177.015C484.824 177.23 484.863 177.443 484.94 177.642C485.016 177.84 485.128 178.021 485.27 178.173C485.412 178.325 485.58 178.446 485.766 178.529C485.951 178.611 486.15 178.654 486.351 178.654H499.468C499.875 178.654 500.264 178.481 500.551 178.174C500.838 177.867 501 177.45 501 177.015V162.983C500.999 162.549 500.837 162.133 500.55 161.825C500.263 161.518 499.874 161.345 499.468 161.344Z"
                  fill="#608AF5"/>
            <path d="M499.468 185.267H486.351C485.945 185.268 485.557 185.442 485.271 185.749C484.985 186.056 484.825 186.472 484.825 186.906V200.938C484.824 201.153 484.863 201.366 484.94 201.564C485.016 201.763 485.128 201.944 485.27 202.096C485.412 202.248 485.58 202.369 485.766 202.452C485.951 202.534 486.15 202.577 486.351 202.577H499.468C499.875 202.577 500.264 202.404 500.551 202.097C500.838 201.789 501 201.373 501 200.938V186.906C500.999 186.471 500.837 186.055 500.55 185.748C500.263 185.441 499.874 185.268 499.468 185.267Z"
                  fill="#E6E6E6"/>
            <path d="M499.468 209.189H486.351C486.15 209.19 485.951 209.232 485.766 209.315C485.58 209.397 485.412 209.518 485.27 209.67C485.128 209.823 485.016 210.003 484.94 210.202C484.863 210.401 484.824 210.614 484.825 210.828V224.861C484.824 225.075 484.863 225.288 484.94 225.487C485.016 225.686 485.128 225.866 485.27 226.019C485.412 226.171 485.58 226.292 485.766 226.374C485.951 226.457 486.15 226.499 486.351 226.5H499.468C499.875 226.499 500.264 226.327 500.551 226.019C500.838 225.712 501 225.295 501 224.861V210.828C501 210.394 500.838 209.977 500.551 209.67C500.264 209.362 499.875 209.19 499.468 209.189Z"
                  fill="#E6E6E6"/>
            <path d="M197.973 416.078H197.608L197.92 416.035L197.973 416.078Z" fill="#2F2E41"/>
            <path d="M166.589 154.476C188.815 154.476 206.833 135.194 206.833 111.408C206.833 87.6218 188.815 68.3395 166.589 68.3395C144.362 68.3395 126.344 87.6218 126.344 111.408C126.344 135.194 144.362 154.476 166.589 154.476Z"
                  fill="#FFB6B6"/>
            <path d="M201.832 79.8308C201.832 79.8308 212.358 58.2967 189.201 56.339C189.201 56.339 169.459 37.1742 149.337 52.8354C149.337 52.8354 138.361 52.8354 132.359 66.1272C132.359 66.1272 123.727 62.6236 121.83 72.0002C121.83 72.0002 115.513 91.5767 121.83 109.196C128.146 126.815 130.245 128.772 130.245 128.772C130.245 128.772 119.865 91.8332 145.129 89.8755C170.394 87.9178 198.665 71.0214 200.771 92.5555C202.876 114.09 206.045 119.396 206.045 119.396C206.045 119.396 226.042 88.6403 201.832 79.8308Z"
                  fill="#2F2E41"/>
            <path d="M270.692 217.548L270.562 218.279L269.107 226.5L259.052 283.359L258.457 286.707L257.209 293.786L255.5 303.443L251.713 324.844L250.629 330.978L250.223 333.279L250.081 334.085L248.956 340.433L248.614 342.35L245.87 364.117L243.472 383.084L251.495 391.67L246.712 396.789L243.572 416.034L243.578 416.078H115.445C110.261 412.485 105.152 408.781 100.118 404.965L101.172 396.518C101.172 396.518 104.801 381.433 103.275 379.63C101.755 377.827 98.4213 374.606 98.4213 374.606L102.621 364.117L103.204 362.66L102.227 340.957L102.203 340.433L101.879 333.279L101.838 332.358L101.773 330.978L100.53 303.443L100.507 302.989L100.13 294.643L99.7762 286.707L99.623 283.359L98.1092 249.867L97.0843 227.124L96.189 207.324L99.788 206.019L138.282 192.018L154.227 169.835L187.413 170.1L203.659 170.232L230.767 197.137L236.934 200.288L236.981 200.314L241.405 202.577L252.62 208.307L264.477 214.371L270.562 217.479L270.692 217.548Z"
                  fill="#CACACA"/>
            <path d="M158.516 351.466C156.084 352.474 153.475 352.899 150.873 352.712C148.271 352.524 145.738 351.729 143.455 350.381C141.171 349.032 139.191 347.165 137.655 344.91C136.119 342.654 135.063 340.066 134.563 337.326L71.7957 327.797L93.6153 301.383L149.875 314.482C154.231 313.887 158.639 315.023 162.264 317.674C165.89 320.326 168.48 324.308 169.545 328.867C170.61 333.425 170.076 338.244 168.043 342.409C166.01 346.574 162.62 349.797 158.516 351.466V351.466Z"
                  fill="#FFB6B6"/>
            <path d="M130.53 303.443C129.367 301.866 127.721 300.778 125.882 300.373L100.13 294.643L97.4848 294.057C95.9478 293.713 94.4958 293.027 93.2239 292.041C91.952 291.056 90.8889 289.795 90.1041 288.339C89.29 286.811 88.7975 285.112 88.6609 283.359C88.5382 281.766 88.7165 280.162 89.1852 278.644L98.1091 249.868L103.899 231.196C104.601 228.944 105.015 226.601 105.131 224.23C105.453 217.67 103.556 211.205 99.7879 206.019C96.4747 201.461 91.8794 198.164 86.6809 196.615C81.4823 195.067 75.9562 195.349 70.9191 197.42C70.7718 197.477 70.6187 197.54 70.4714 197.603C66.859 199.147 63.6315 201.568 61.0441 204.677C58.4567 207.785 56.5801 211.494 55.5628 215.512L49.2719 240.002L36.2954 290.489C34.9964 295.547 34.7339 300.846 35.526 306.023C36.3181 311.2 38.1461 316.133 40.8847 320.483C43.6234 324.834 47.2081 328.5 51.3936 331.231C55.579 333.962 60.2663 335.692 65.1347 336.304L102.226 340.957L119.391 343.113C121.376 343.368 123.378 342.813 124.998 341.56C126.618 340.306 127.737 338.446 128.132 336.349C128.16 336.234 128.182 336.119 128.197 336.002L128.61 333.279L132.103 310.346L132.138 310.112C132.32 308.942 132.271 307.744 131.994 306.595C131.717 305.447 131.218 304.373 130.53 303.443Z"
                  fill="#CACACA"/>
            <path d="M198.496 352.201C201.036 352.832 203.675 352.859 206.227 352.281C208.778 351.703 211.18 350.533 213.263 348.854C215.346 347.174 217.06 345.027 218.284 342.562C219.508 340.097 220.212 337.375 220.346 334.588L281.23 315.681L256.148 292.824L202.177 314.283C197.786 314.351 193.572 316.141 190.332 319.313C187.092 322.485 185.052 326.818 184.598 331.492C184.145 336.166 185.309 340.856 187.87 344.673C190.432 348.489 194.212 351.168 198.496 352.201V352.201Z"
                  fill="#FFB6B6"/>
            <path d="M311.459 273.387L282.502 202.066C280.133 196.211 275.903 191.443 270.562 188.608C268.911 187.738 267.177 187.062 265.39 186.591C265.113 186.515 264.837 186.446 264.56 186.389C260.771 185.504 256.841 185.582 253.085 186.616C249.652 187.56 246.444 189.267 243.669 191.628C240.894 193.988 238.615 196.948 236.981 200.314C236.963 200.342 236.947 200.371 236.934 200.402C235.109 204.181 234.138 208.366 234.1 212.619C234.062 216.873 234.958 221.077 236.716 224.892L237.075 225.661L257.538 269.642C258.237 271.146 258.631 272.791 258.694 274.47C258.757 276.148 258.487 277.821 257.903 279.38C257.319 280.939 256.434 282.349 255.305 283.516C254.176 284.683 252.83 285.581 251.354 286.152L249.916 286.707L224.069 296.698C222.13 297.439 220.534 298.956 219.619 300.93C218.704 302.904 218.54 305.181 219.163 307.282L219.227 307.503L226.473 332.314C226.508 332.428 226.543 332.541 226.584 332.655C226.648 332.869 226.727 333.077 226.82 333.279C227.59 335.127 228.951 336.62 230.658 337.49C232.365 338.361 234.307 338.55 236.133 338.025L250.081 334.086L252.926 333.279L288.946 323.098C293.685 321.758 298.098 319.337 301.882 316.002C305.667 312.667 308.733 308.497 310.871 303.776C313.009 299.055 314.168 293.895 314.27 288.65C314.371 283.405 313.412 278.198 311.459 273.387L311.459 273.387Z"
                  fill="#CACACA"/>
            <path d="M26.4467 333.279C34.7936 344.174 43.7956 354.475 53.3952 364.117H319.623C322.188 364.121 324.647 365.214 326.46 367.155C328.273 369.097 329.293 371.729 329.295 374.474L329.678 446.67C346.056 438.618 361.394 428.335 375.311 416.078C379.175 412.681 382.919 409.136 386.544 405.444C388.918 403.036 391.235 400.569 393.494 398.043C410.437 379.154 424.157 357.235 434.032 333.279H26.4467Z"
                  fill="#3F3D56"/>
            <path d="M393.494 398.043C391.238 400.571 388.922 403.038 386.544 405.444H329.872V398.043H393.494Z"
                  fill="white"/>
            <path d="M270.162 161.344C269.882 160.791 269.467 160.329 268.962 160.007C268.457 159.686 267.881 159.516 267.293 159.516H74.1824C73.3166 159.518 72.487 159.888 71.8753 160.544C71.2637 161.199 70.9198 162.088 70.9191 163.015V286.707H270.562V163.015C270.565 162.43 270.427 161.855 270.162 161.344Z"
                  fill="#3F3D56"/>
            <path d="M70.7442 283.358V298.622C70.7442 299.254 70.8607 299.881 71.087 300.465C71.3132 301.05 71.6449 301.581 72.063 302.029C72.4811 302.476 72.9774 302.831 73.5237 303.073C74.07 303.315 74.6555 303.44 75.2468 303.44H148.934V333.563H147.955C147.878 333.563 147.802 333.58 147.731 333.611C147.66 333.643 147.595 333.689 147.541 333.747C147.487 333.805 147.444 333.874 147.414 333.95C147.385 334.026 147.37 334.107 147.37 334.189V336.285C147.37 336.367 147.385 336.448 147.414 336.524C147.444 336.6 147.487 336.669 147.541 336.727C147.595 336.785 147.66 336.831 147.731 336.863C147.802 336.894 147.878 336.911 147.955 336.911H193.699C193.775 336.911 193.851 336.894 193.922 336.863C193.993 336.831 194.058 336.785 194.112 336.727C194.166 336.669 194.21 336.6 194.239 336.524C194.268 336.448 194.283 336.367 194.283 336.285V334.189C194.283 334.107 194.268 334.026 194.239 333.95C194.21 333.874 194.166 333.805 194.112 333.747C194.058 333.689 193.993 333.643 193.922 333.611C193.851 333.58 193.775 333.563 193.699 333.563H192.72V303.44H266.406C266.998 303.44 267.583 303.315 268.13 303.073C268.676 302.831 269.172 302.476 269.59 302.029C270.008 301.581 270.34 301.05 270.566 300.465C270.793 299.881 270.909 299.254 270.909 298.622V283.358H70.7442Z"
                  fill="#3F3D56"/>
            <path d="M168.408 239.549C178.592 239.549 186.849 230.713 186.849 219.814C186.849 208.915 178.592 200.079 168.408 200.079C158.223 200.079 149.967 208.915 149.967 219.814C149.967 230.713 158.223 239.549 168.408 239.549Z"
                  fill="#608AF5"/>
            <path d="M215.393 109.055H212.447C212.447 85.2264 190.412 69.612 168.181 69.5994C164.948 69.5893 161.721 69.925 158.55 70.6017C154.981 71.3644 151.276 72.2785 147.636 73.4699C133.281 78.1788 119.968 87.2814 119.968 109.055C119.965 113.283 120.468 117.495 121.465 121.586L118.614 122.381C117.556 118.029 117.022 113.551 117.023 109.055C117.023 90.0298 124.321 76.9622 136.927 69.1707C143.553 65.0733 151.641 62.432 160.907 61.1461C164.762 60.5971 168.66 60.4704 172.54 60.7679C198.104 62.7346 215.393 83.7135 215.393 109.055Z"
                  fill="#608AF5"/>
            <path d="M220.299 110.801L219.139 101.622C218.853 99.3045 217.809 97.1697 216.194 95.596C215.157 94.57 213.915 93.8099 212.563 93.3731C211.211 92.9362 209.783 92.8341 208.389 93.0745L206.545 93.3455C206.041 93.4166 205.555 93.5942 205.115 93.868C204.675 94.1417 204.29 94.5063 203.983 94.9404C203.673 95.3731 203.447 95.8671 203.316 96.394C203.186 96.9209 203.154 97.4703 203.223 98.0103L205.903 119.153C206.014 120.015 206.375 120.818 206.935 121.448C207.495 122.078 208.226 122.503 209.025 122.664C209.262 122.715 209.503 122.74 209.744 122.74C209.917 122.74 210.09 122.727 210.262 122.702L212.324 122.406C213.581 122.227 214.79 121.776 215.878 121.079C216.966 120.382 217.909 119.454 218.65 118.353C218.809 118.113 218.962 117.867 219.104 117.615C220.208 115.552 220.629 113.151 220.299 110.801Z"
                  fill="#608AF5"/>
            <path d="M205.355 93.7301C204.815 94.0113 204.344 94.4262 203.983 94.9404C203.673 95.3731 203.447 95.8671 203.316 96.394C203.186 96.921 203.154 97.4703 203.223 98.0103L205.903 119.153C206.014 120.015 206.375 120.818 206.935 121.448C207.495 122.078 208.226 122.503 209.025 122.664L205.355 93.7301Z"
                  fill="white"/>
            <path d="M220.299 110.801L219.139 101.622C218.853 99.3045 217.809 97.1697 216.194 95.5959L218.862 116.632C218.902 116.969 218.983 117.3 219.104 117.615C220.208 115.552 220.629 113.151 220.299 110.801Z"
                  fill="#3F3D56"/>
            <path d="M211.128 117.414C211.934 117.297 212.339 115.244 212.033 112.829C211.727 110.414 210.826 108.552 210.02 108.669C209.214 108.786 208.809 110.838 209.115 113.253C209.421 115.668 210.322 117.531 211.128 117.414Z"
                  fill="#3F3D56"/>
            <path d="M209.361 106.067C210.167 105.95 210.572 103.897 210.266 101.483C209.96 99.0677 209.058 97.2048 208.253 97.3218C207.447 97.4388 207.041 99.4914 207.348 101.906C207.654 104.321 208.555 106.184 209.361 106.067Z"
                  fill="#3F3D56"/>
            <path d="M220.553 110.48C221.359 110.363 221.764 108.31 221.458 105.895C221.152 103.48 220.25 101.617 219.444 101.734C218.638 101.851 218.233 103.904 218.539 106.319C218.845 108.734 219.747 110.597 220.553 110.48Z"
                  fill="#3F3D56"/>
            <path d="M168.181 69.5994C164.948 69.5893 161.721 69.9251 158.55 70.6017C154.981 71.3645 151.276 72.2785 147.636 73.4699C141.951 73.1736 137.769 71.5977 136.927 69.1707C143.553 65.0733 151.641 62.432 160.907 61.1461C164.762 60.5971 168.66 60.4704 172.54 60.7679C172.951 61.0255 173.306 61.3733 173.582 61.7883C173.858 62.2034 174.049 62.6762 174.142 63.1759C174.419 65.3696 172.081 67.702 168.181 69.5994Z"
                  fill="#3F3D56"/>
            <path d="M130.577 130.928L126.041 110.75C125.88 110.022 125.521 109.362 125.009 108.851C124.498 108.341 123.857 108.004 123.167 107.882C122.972 107.85 122.775 107.833 122.578 107.832C122.3 107.833 122.023 107.869 121.753 107.939L119.998 108.393C117.738 108.978 115.787 110.498 114.573 112.621C113.36 114.743 112.982 117.294 113.524 119.714L115.556 128.766C116.02 130.897 117.126 132.806 118.702 134.2C118.957 134.421 119.225 134.625 119.503 134.812C120.49 135.474 121.592 135.918 122.742 136.117C123.892 136.316 125.068 136.267 126.2 135.972L127.95 135.518C128.412 135.402 128.848 135.185 129.228 134.881C129.794 134.44 130.224 133.828 130.464 133.124C130.705 132.42 130.744 131.656 130.577 130.928Z"
                  fill="#608AF5"/>
            <path d="M121.069 127.174C121.859 126.97 122.068 124.885 121.536 122.515C121.003 120.146 119.93 118.39 119.139 118.594C118.348 118.797 118.139 120.883 118.672 123.253C119.205 125.622 120.278 127.378 121.069 127.174Z"
                  fill="#3F3D56"/>
            <path d="M115.178 129.065C115.969 128.862 116.178 126.776 115.645 124.406C115.112 122.037 114.039 120.281 113.249 120.485C112.458 120.689 112.249 122.774 112.782 125.144C113.315 127.513 114.387 129.269 115.178 129.065Z"
                  fill="#3F3D56"/>
            <path d="M130.866 130.853L126.33 110.675C126.153 109.887 125.763 109.173 125.209 108.621C124.655 108.069 123.961 107.705 123.214 107.573L129.405 135.133C130.016 134.654 130.481 133.992 130.741 133.23C131.001 132.468 131.044 131.641 130.866 130.853Z"
                  fill="white"/>
            <path d="M114.549 115.718C114.424 115.156 114.189 114.63 113.86 114.173C113.222 115.94 113.105 117.874 113.524 119.714L115.556 128.766C116.02 130.897 117.126 132.806 118.702 134.2L114.549 115.718Z"
                  fill="#3F3D56"/>
        </g>
        <defs>
            <clipPath id="clip0_12_1902">
                <rect width="501" height="467" fill="white"/>
            </clipPath>
        </defs>
    </g>

    <g id="scroll">
        <path fill-rule="evenodd" clip-rule="evenodd"
              d="M15.9993 2C16.2645 2 16.5189 2.10536 16.7064 2.29289C16.894 2.48043 16.9993 2.73478 16.9993 3V26.586L23.2913 20.292C23.4791 20.1042 23.7338 19.9987 23.9993 19.9987C24.2649 19.9987 24.5195 20.1042 24.7073 20.292C24.8951 20.4798 25.0006 20.7344 25.0006 21C25.0006 21.2656 24.8951 21.5202 24.7073 21.708L16.7073 29.708C16.6144 29.8011 16.5041 29.875 16.3826 29.9254C16.2611 29.9758 16.1308 30.0018 15.9993 30.0018C15.8678 30.0018 15.7375 29.9758 15.616 29.9254C15.4946 29.875 15.3842 29.8011 15.2913 29.708L7.29131 21.708C7.10354 21.5202 6.99805 21.2656 6.99805 21C6.99805 20.7344 7.10354 20.4798 7.29131 20.292C7.47908 20.1042 7.73376 19.9987 7.99931 19.9987C8.26486 19.9987 8.51954 20.1042 8.70731 20.292L14.9993 26.586V3C14.9993 2.73478 15.1047 2.48043 15.2922 2.29289C15.4797 2.10536 15.7341 2 15.9993 2Z"
              fill="#D7E5EC"/>
    </g>
    <!--skills-->

    <g id="git">
        <g clip-path="url(#clip0_2_5868)">
            <path d="M103.02 47.8219L57.1758 1.98038C54.5372 -0.6598 50.2552 -0.6598 47.6134 1.98038L38.0937 11.5001L50.1699 23.5763C52.9762 22.6281 56.1943 23.2642 58.4313 25.5012C60.6789 27.7525 61.3106 30.9981 60.3393 33.8134L71.9775 45.452C74.7932 44.482 78.0421 45.1095 80.291 47.3621C83.434 50.5039 83.434 55.596 80.291 58.7399C77.1471 61.8841 72.055 61.8841 68.9095 58.7399C66.5454 56.3733 65.9613 52.9013 67.1582 49.9888L56.3046 39.1352L56.3034 67.6973C57.0902 68.0863 57.8088 68.6002 58.4313 69.2189C61.5743 72.3607 61.5743 77.4532 58.4313 80.5995C55.2874 83.7422 50.1929 83.7422 47.0535 80.5995C43.9105 77.4532 43.9105 72.3611 47.0535 69.2193C47.8067 68.4658 48.7019 67.869 49.6871 67.4635V38.6352C48.7004 38.2324 47.8048 37.6353 47.0535 36.8793C44.6722 34.5013 44.0996 31.0071 45.3198 28.0831L33.4154 16.1775L1.98105 47.6099C-0.660352 50.2525 -0.660352 54.5349 1.98105 57.1755L47.8259 103.018C50.4652 105.658 54.7464 105.658 57.3891 103.018L103.019 57.3884C105.66 54.747 105.66 50.4621 103.019 47.8219"
                  fill="#DE4C36"/>
        </g>
        <defs>
            <clipPath id="clip0_2_5868">
                <rect width="105" height="105" fill="white"/>
            </clipPath>
        </defs>
    </g>

    <g id="javascript">
        <g clip-path="url(#clip0_2_5883)">
            <path d="M0.5 0.5H105.5V105.5H0.5V0.5Z" fill="#F5DE19"/>
            <path d="M71.0338 82.5312C71.9284 84.3485 73.3183 85.8759 75.0434 86.9375C76.7684 87.9991 78.7584 88.5515 80.7838 88.5313C84.8713 88.5313 87.485 86.4875 87.485 83.6562C87.485 80.2812 84.8 79.0738 80.3 77.105L77.8325 76.0475C70.7075 73.0138 65.9825 69.215 65.9825 61.1825C65.9825 53.7838 71.6075 48.1475 80.4313 48.1475C83.2877 47.9412 86.1416 48.5805 88.637 49.9856C91.1324 51.3907 93.159 53.4994 94.4638 56.0488L86.75 60.98C86.2476 59.716 85.3728 58.6345 84.2416 57.879C83.1105 57.1236 81.7764 56.7298 80.4163 56.75C79.8229 56.6906 79.2236 56.7555 78.6567 56.9404C78.0897 57.1254 77.5675 57.4265 77.1234 57.8244C76.6792 58.2224 76.3228 58.7085 76.0769 59.2518C75.831 59.7951 75.7009 60.3837 75.695 60.98C75.695 63.9388 77.5288 65.1388 81.7625 66.98L84.23 68.0375C92.615 71.6338 97.355 75.2975 97.355 83.5363C97.355 92.42 90.3763 97.2875 81.005 97.2875C77.3537 97.5201 73.713 96.6912 70.5223 94.9005C67.3317 93.1099 64.7274 90.4342 63.0238 87.1963L71.0338 82.5312ZM36.1775 83.3863C37.7263 86.135 39.1363 88.46 42.5263 88.46C45.7663 88.46 47.8138 87.1925 47.8138 82.2612V48.71H57.68V82.3925C57.68 92.6075 51.68 97.2575 42.9463 97.2575C39.8591 97.4263 36.7931 96.6569 34.1513 95.0506C31.5096 93.4442 29.4157 91.0761 28.145 88.2575L36.1775 83.3863Z"
                  fill="black"/>
        </g>
        <defs>
            <clipPath id="clip0_2_5883">
                <rect width="106" height="106" fill="white"/>
            </clipPath>
        </defs>
    </g>

    <g id="react">
        <g clip-path="url(#clip0_2_5870)">
            <path d="M92.9056 32.7028C91.7031 32.2887 90.4904 31.9051 89.2687 31.5524C89.4739 30.7107 89.6628 29.8792 89.8306 29.0624C92.5838 15.6484 90.7839 4.84184 84.6361 1.28381C78.7416 -2.12716 69.1016 1.42955 59.3659 9.93348C58.4064 10.7731 57.4682 11.6369 56.5522 12.524C55.9389 11.9341 55.3149 11.3556 54.6803 10.7889C44.4767 1.69623 34.2493 -2.13602 28.1081 1.43221C22.2189 4.8538 20.475 15.0127 22.9538 27.7254C23.2004 28.9845 23.4788 30.2371 23.7888 31.4819C22.3412 31.8948 20.9442 32.3342 19.6073 32.802C7.64443 36.9882 0.00476074 43.5483 0.00476074 50.353C0.00476074 57.3809 8.20629 64.4301 20.6662 68.7044C21.6763 69.0495 22.6949 69.3693 23.7209 69.6635C23.3877 71.0042 23.0918 72.3541 22.8337 73.7114C20.4706 86.2035 22.316 96.1224 28.1893 99.5223C34.2555 103.033 44.437 99.4248 54.3506 90.7268C55.1545 90.0197 55.9407 89.2925 56.7084 88.546C57.7004 89.5067 58.7189 90.4394 59.7627 91.343C69.366 99.6365 78.8502 102.985 84.7177 99.5763C90.7782 96.055 92.748 85.3995 90.1907 72.4357C89.9893 71.42 89.7634 70.4094 89.5132 69.4048C90.2282 69.1921 90.93 68.9733 91.6141 68.7456C104.567 64.4385 112.995 57.4748 112.995 50.353C112.995 43.5235 105.109 36.9191 92.9056 32.7028ZM90.0963 64.1474C89.4783 64.3525 88.8445 64.5506 88.1984 64.7433C86.7683 60.1996 84.8387 55.3684 82.4769 50.3764C84.7305 45.5036 86.586 40.7341 87.9759 36.2201C89.1319 36.5558 90.2534 36.9098 91.3347 37.2832C101.791 40.8962 108.169 46.2372 108.169 50.353C108.169 54.7367 101.281 60.4277 90.0963 64.1474ZM85.4557 73.3765C86.5865 79.1087 86.7476 84.2916 85.9986 88.3436C85.3259 91.9845 83.9727 94.4116 82.299 95.3839C78.7385 97.4526 71.1235 94.7637 62.911 87.6707C61.9401 86.8305 60.9927 85.9634 60.0699 85.0704C63.2539 81.5757 66.4358 77.5131 69.5412 73.0009C75.0036 72.5145 80.1641 71.7189 84.844 70.6332C85.0694 71.5426 85.2734 72.4574 85.4557 73.3765ZM38.5257 95.0264C35.0469 96.2592 32.2759 96.2947 30.6009 95.3254C27.0369 93.2625 25.5552 85.2981 27.5762 74.6151C27.8165 73.3527 28.0916 72.0973 28.4012 70.8502C33.0294 71.8779 38.1523 72.6168 43.6275 73.0625C46.7542 77.4777 50.0278 81.5358 53.3271 85.0894C52.6259 85.7704 51.9082 86.4339 51.1745 87.0793C46.7904 90.9253 42.3974 93.6541 38.5257 95.0264ZM22.2277 64.1204C16.7181 62.2302 12.168 59.7739 9.04931 57.0934C6.24661 54.6849 4.83202 52.2932 4.83202 50.353C4.83202 46.2235 10.9657 40.9564 21.1962 37.3767C22.4378 36.9426 23.7372 36.5328 25.0856 36.1483C26.4997 40.7642 28.3544 45.5905 30.5926 50.4708C28.3252 55.4233 26.4441 60.3267 25.0163 64.9971C24.0798 64.7278 23.15 64.4355 22.2277 64.1204ZM27.691 26.7947C25.5676 15.9031 26.9777 7.68712 30.5268 5.62504C34.3067 3.42873 42.6653 6.56017 51.4755 14.4116C52.05 14.9247 52.6152 15.4483 53.1708 15.982C49.8879 19.5201 46.6443 23.5481 43.5454 27.9372C38.2313 28.4315 33.1446 29.2254 28.4678 30.289C28.1797 29.1311 27.9206 27.9661 27.691 26.7952V26.7947ZM76.4301 38.874C75.3255 36.9589 74.1799 35.068 72.9941 33.2025C76.5992 33.6601 80.0533 34.2674 83.297 35.0098C82.3233 38.1426 81.1095 41.4176 79.6808 44.7754C78.6365 42.7867 77.5527 40.8192 76.4301 38.874ZM56.5544 19.4443C58.7806 21.8652 61.0104 24.5679 63.2036 27.5004C58.7546 27.2895 54.2982 27.2886 49.8491 27.4977C52.0445 24.5922 54.2932 21.8931 56.5544 19.4443ZM36.5511 38.9072C35.4425 40.8368 34.3789 42.792 33.3613 44.7714C31.956 41.4255 30.7532 38.1355 29.7712 34.9584C32.9949 34.2346 36.4328 33.6428 40.0149 33.1936C38.8159 35.0705 37.661 36.9754 36.5511 38.9067V38.9072ZM40.1178 67.857C36.4169 67.4424 32.9274 66.8811 29.7045 66.1768C30.702 62.943 31.9312 59.583 33.367 56.1653C34.3887 58.1462 35.4567 60.1026 36.57 62.0331C37.7149 64.0177 38.9005 65.9615 40.1178 67.857ZM56.6877 81.6027C54.3996 79.1256 52.1177 76.3848 49.8892 73.4372C52.0528 73.5223 54.2584 73.5657 56.5001 73.5657C58.8031 73.5657 61.0797 73.5139 63.3206 73.4138C61.1203 76.4145 58.8989 79.1592 56.6877 81.6027ZM79.7263 55.9908C81.2366 59.4461 82.5096 62.7884 83.5203 65.9668C80.2444 66.7172 76.7073 67.3214 72.9804 67.7702C74.1746 65.87 75.3311 63.9462 76.4491 61.9999C77.5858 60.0215 78.6784 58.018 79.7263 55.9908ZM72.268 59.5794C70.5565 62.5635 68.7487 65.491 66.8475 68.3571C63.4038 68.6019 59.9525 68.7235 56.5001 68.7217C52.9837 68.7217 49.5635 68.6118 46.27 68.3974C44.3193 65.5379 42.477 62.6053 40.7472 59.606H40.7476C39.0259 56.6225 37.4177 53.5745 35.9265 50.4686C37.4139 47.3619 39.0172 44.3125 40.733 41.3268L40.7326 41.3272C42.4478 38.3407 44.2753 35.4207 46.2113 32.5734C49.5715 32.3183 53.0172 32.1854 56.4996 32.1854H56.5001C59.9984 32.1854 63.4486 32.3196 66.8078 32.5765C68.7243 35.4195 70.5402 38.3295 72.2521 41.3011C73.9736 44.2802 75.5982 47.3148 77.1231 50.3999C75.6138 53.5166 73.9944 56.5784 72.268 59.5794ZM82.2253 5.48062C86.0087 7.67073 87.4803 16.5025 85.103 28.0842C84.9512 28.8231 84.7808 29.5758 84.5955 30.339C79.9072 29.2528 74.8169 28.4453 69.4874 27.9434C66.3828 23.506 63.1656 19.4718 59.9361 15.9793C60.7825 15.1605 61.6491 14.3628 62.5349 13.5872C70.8768 6.30147 78.6732 3.42474 82.2253 5.48062ZM56.5001 40.2264C62.0724 40.2264 66.5898 44.7603 66.5898 50.353C66.5898 55.9456 62.0724 60.4796 56.5001 60.4796C50.9278 60.4796 46.4104 55.9456 46.4104 50.353C46.4104 44.7603 50.9278 40.2264 56.5001 40.2264Z"
                  fill="#00D8FF"/>
        </g>
        <defs>
            <clipPath id="clip0_2_5870">
                <rect width="113" height="101" fill="white"/>
            </clipPath>
        </defs>
    </g>

    <g id="html">
        <g clip-path="url(#clip0_2_5893)">
            <path d="M9.13255 95.0038L0.706299 0.5H93.2938L84.8563 94.9888L46.9438 105.5L9.13255 95.0038Z"
                  fill="#E44F26"/>
            <path d="M47 97.4675L77.6375 88.9738L84.845 8.22876H47V97.4675Z" fill="#F1662A"/>
            <path d="M47 43.2763H31.6625L30.605 31.4075H47V19.8163H17.9375L18.215 22.9288L21.0613 54.8675H47V43.2763ZM47 73.3775L46.9475 73.3925L34.04 69.9088L33.215 60.665H21.5787L23.2025 78.86L46.9475 85.4525L47 85.4375V73.3775Z"
                  fill="#EBEBEB"/>
            <path d="M46.9587 43.2763V54.8675H61.2312L59.8887 69.9013L46.9587 73.3888V85.4488L70.7225 78.86L70.895 76.9025L73.6175 46.3888L73.9025 43.2763H46.9587ZM46.9587 19.8163V31.4075H74.9562L75.1887 28.805L75.7175 22.9288L75.995 19.8163H46.9587Z"
                  fill="white"/>
        </g>
        <defs>
            <clipPath id="clip0_2_5893">
                <rect width="94" height="106" fill="white"/>
            </clipPath>
        </defs>
    </g>

    <g id="css">
        <g clip-path="url(#clip0_2_5886)">
            <path d="M9.13246 94.1537L0.709961 0.4375H93.29L84.8562 94.1388L46.9437 104.562L9.13246 94.1537Z"
                  fill="#1572B6"/>
            <path d="M47 96.5969L77.6375 88.1739L84.845 8.10181H47V96.5969Z" fill="#33A9DC"/>
            <path d="M47 42.054H62.3375L63.395 30.2842H47V18.7896H76.0625L75.785 21.8724L72.9387 53.5487H47V42.054Z"
                  fill="white"/>
            <path d="M47.0713 71.9045L47.0188 71.9193L34.1113 68.4609L33.2863 59.2942H21.65L23.2738 77.3413L47.015 83.8788L47.0713 83.864V71.9045Z"
                  fill="#EBEBEB"/>
            <path d="M61.3513 53.0615L59.9563 68.4534L47.03 71.9119V83.8714L70.79 77.3412L70.9663 75.4001L72.98 53.0615H61.3513Z"
                  fill="white"/>
            <path d="M47.0413 18.7896V30.2842H19.0438L18.8113 27.6997L18.2825 21.8724L18.005 18.7896H47.0413ZM47 42.054V53.5487H34.2538L34.0213 50.9642L33.4963 45.1369L33.2188 42.054H47Z"
                  fill="#EBEBEB"/>
        </g>
        <defs>
            <clipPath id="clip0_2_5886">
                <rect width="94" height="105" fill="white"/>
            </clipPath>
        </defs>
    </g>

    <g id="saas">
        <g clip-path="url(#clip0_2_5872)">
            <path d="M100.673 50.0767C96.603 50.0975 93.0653 51.0695 90.1035 52.5064C89.0162 50.3721 87.9295 48.4708 87.738 47.0761C87.5246 45.4494 87.2691 44.4561 87.5246 42.5122C87.7805 40.5683 88.9312 37.8002 88.9098 37.589C88.8887 37.3779 88.6538 36.3846 86.3098 36.3638C83.9658 36.3425 81.9413 36.8074 81.7068 37.42C81.4724 38.0326 81.025 39.4274 80.7266 40.8638C80.3216 42.9771 76.0386 50.5199 73.5881 54.4711C72.7993 52.9291 72.1174 51.5765 71.968 50.499C71.755 48.8723 71.4991 47.879 71.755 45.9351C72.0109 43.9912 73.1617 41.2235 73.1402 41.0119C73.1187 40.8008 72.8843 39.8075 70.5403 39.7867C68.1958 39.7654 66.1713 40.2303 65.9373 40.8429C65.7029 41.456 65.4469 42.8924 64.957 44.2871C64.4667 45.6818 58.7769 58.2751 57.2852 61.5285C56.6824 62.8454 56.0501 64.1487 55.3886 65.4376C55.3886 65.4376 55.3672 65.5011 55.3032 65.6067C55.0954 66.0108 54.8824 66.4123 54.6643 66.8111V66.8319C54.3444 67.4028 54.0035 67.9307 53.833 67.9307C53.705 67.9307 53.4706 66.4096 53.8755 64.3388C54.7278 59.9652 56.7524 53.1616 56.7313 52.9291C56.7313 52.8022 57.1148 51.6191 55.4101 51.0061C53.7475 50.3934 53.1511 51.4075 53.0017 51.4075C52.8527 51.4075 52.7458 51.7669 52.7458 51.7669C52.7458 51.7669 54.6003 44.1181 49.2085 44.1181C45.8417 44.1181 41.1958 47.7735 38.8943 51.0695C36.278 52.4812 33.6639 53.8969 31.052 55.3166C29.7953 56.014 28.4951 56.7114 27.2803 57.3661C27.1949 57.2818 27.1099 57.1758 27.0244 57.0915C20.5034 50.1823 8.442 45.3012 8.95339 36.0257C9.14534 32.645 10.3171 23.7705 32.1178 12.9948C50.0608 4.22589 64.3392 6.65555 66.8111 12.0437C70.3484 19.735 59.1608 34.0184 40.6204 36.0887C33.5455 36.8708 29.8373 34.1661 28.9 33.152C27.9197 32.0953 27.7703 32.0319 27.4079 32.2435C26.8115 32.5607 27.1949 33.5114 27.4079 34.0605C27.9622 35.497 30.2422 38.0326 34.0994 39.2796C37.5091 40.378 45.7988 40.9911 55.8361 37.1454C67.0666 32.8348 75.8466 20.8547 73.2682 10.8184C70.6893 0.633969 53.641 -2.7255 37.5091 2.95805C27.9197 6.33927 17.52 11.6635 10.0402 18.594C1.15363 26.8341 -0.253039 33.9971 0.322334 36.9977C2.38984 47.6466 17.2006 54.5771 23.1248 59.7115C22.8263 59.8805 22.5489 60.0287 22.3149 60.1556C19.3526 61.6133 8.05811 67.4658 5.24523 73.6569C2.04891 80.6717 5.75708 85.7009 8.20756 86.3765C15.8154 88.4686 23.6362 84.7077 27.8342 78.4953C32.0323 72.2834 31.5209 64.2119 29.5818 60.5144C29.5604 60.4723 29.5393 60.4297 29.4964 60.3876C30.2637 59.9439 31.052 59.479 31.8194 59.0354C33.2296 58.2088 34.6578 57.4127 36.1029 56.6475C35.3781 58.6127 34.8452 60.958 34.5897 64.3388C34.2698 68.3114 35.9105 73.4666 38.063 75.4947C39.0223 76.3829 40.1515 76.4037 40.8763 76.4037C43.3908 76.4037 44.5205 74.3329 45.7778 71.882C47.3119 68.8818 48.6971 65.3955 48.6971 65.3955C48.6971 65.3955 46.971 74.8191 51.6595 74.8191C53.3641 74.8191 55.0902 72.6215 55.8575 71.5018V71.5227C55.8575 71.5227 55.9 71.4592 55.9855 71.3115C56.156 71.0369 56.2624 70.8674 56.2624 70.8674V70.8257C56.9443 69.6422 58.4789 66.9588 60.7589 62.5005C63.6998 56.7535 66.5342 49.5697 66.5342 49.5697C66.5342 49.5697 66.7901 51.3232 67.6634 54.2391C68.1753 55.9506 69.2401 57.831 70.0929 59.6481C69.411 60.5992 68.9846 61.1271 68.9846 61.1271L69.0061 61.1484C68.4518 61.8666 67.8554 62.6482 67.1945 63.4095C64.8716 66.1558 62.1016 69.3046 61.7178 70.2127C61.2699 71.2902 61.3768 72.0723 62.2296 72.7062C62.8475 73.1711 63.9553 73.2341 65.085 73.1711C67.1735 73.0229 68.6437 72.5159 69.3681 72.1992C70.4978 71.7977 71.819 71.1846 73.0548 70.2761C75.3352 68.6068 76.72 66.2193 76.5925 63.0714C76.5285 61.3387 75.9531 59.6059 75.2498 57.9787C75.4632 57.6833 75.6547 57.3874 75.8681 57.0915C79.4693 51.8724 82.2612 46.1463 82.2612 46.1463C82.2612 46.1463 82.5171 47.8999 83.3905 50.8162C83.8168 52.2952 84.6907 53.9011 85.4575 55.4644C82.0693 58.1904 79.9807 61.3595 79.2349 63.4303C77.8926 67.276 78.9365 69.0083 80.9185 69.4097C81.8133 69.6 83.092 69.1773 84.0298 68.7758C85.2231 68.3956 86.6297 67.7409 87.9724 66.7685C90.2529 65.0996 92.4474 62.7751 92.3195 59.6272C92.2555 58.1904 91.8721 56.7743 91.3392 55.4009C94.2161 54.2183 97.9242 53.563 102.655 54.1122C112.799 55.2953 114.802 61.5707 114.418 64.2124C114.035 66.8532 111.904 68.2901 111.201 68.7337C110.497 69.1777 110.263 69.3254 110.327 69.6422C110.412 70.1071 110.753 70.0862 111.35 70.0015C112.181 69.8538 116.678 67.8673 116.869 63.0075C117.189 56.7956 111.222 50.0133 100.673 50.0767ZM22.4214 76.2347C19.0542 79.8688 14.3662 81.2422 12.3417 80.0804C10.1681 78.8334 11.0204 73.4666 15.1545 69.6213C17.669 67.276 20.9083 65.0992 23.0608 63.7683C23.5507 63.4724 24.2755 63.0501 25.1493 62.5218C25.2983 62.437 25.3838 62.3949 25.3838 62.3949L25.8952 62.0777C27.4078 67.5714 25.9591 72.4103 22.4214 76.2347ZM46.9285 59.7115C45.7563 62.5431 43.3058 69.7904 41.8141 69.3889C40.5354 69.0509 39.7466 63.5572 41.5582 58.1269C42.4745 55.4009 44.4136 52.147 45.5433 50.8796C47.3759 48.851 49.4005 48.1745 49.8904 48.9992C50.5087 50.0767 47.6529 57.9366 46.9285 59.7115ZM67.152 69.3042C66.6617 69.5579 66.1932 69.7269 65.9798 69.6C65.8308 69.5153 66.1932 69.1773 66.1932 69.1773C66.1932 69.1773 68.7292 66.473 69.7305 65.2473C70.3063 64.5291 70.9877 63.684 71.7125 62.7329V63.0075C71.7125 66.2406 68.5583 68.4169 67.1516 69.3042H67.152ZM82.7511 65.7757C82.3887 65.5219 82.4527 64.6768 83.6674 62.0356C84.1363 61.0002 85.2441 59.2679 87.1411 57.5986C87.3541 58.2746 87.5035 58.9299 87.4821 59.5425C87.4606 63.6206 84.5202 65.1417 82.7511 65.7757Z"
                  fill="#CD6799"/>
        </g>
        <defs>
            <clipPath id="clip0_2_5872">
                <rect width="117" height="87" fill="white"/>
            </clipPath>
        </defs>
    </g>

    <g id="vsCode">
        <g clip-path="url(#clip0_2_5879)">
            <path d="M95.535 10.605L75.354 0.888988C74.2143 0.339481 72.9319 0.158144 71.6845 0.370113C70.4372 0.582082 69.2867 1.17686 68.3925 2.07199L2.32998 62.3C1.52845 63.0273 1.04865 64.0432 0.996144 65.1243C0.943634 66.2053 1.32271 67.2629 2.04998 68.0645C2.13748 68.159 2.22498 68.25 2.31948 68.334L7.71298 73.234C8.41775 73.8754 9.32493 74.2497 10.277 74.2919C11.229 74.3341 12.1657 74.0416 12.9245 73.465L92.497 13.125C93.098 12.6689 93.8144 12.3897 94.5656 12.3186C95.3167 12.2476 96.0727 12.3877 96.7486 12.7231C97.4244 13.0585 97.9932 13.5758 98.391 14.217C98.7888 14.8581 98.9997 15.5975 99 16.352V16.1175C98.9999 14.9656 98.6747 13.8372 98.0617 12.862C97.4487 11.8868 96.5729 11.1045 95.535 10.605Z"
                  fill="#0065A9"/>
            <path d="M95.535 87.395L75.354 97.1145C74.214 97.6625 72.9319 97.843 71.6849 97.6311C70.4379 97.4191 69.2875 96.8253 68.3925 95.9315L2.32998 35.7C1.52845 34.9727 1.04865 33.9568 0.996144 32.8758C0.943634 31.7947 1.32271 30.7371 2.04998 29.9355C2.13748 29.841 2.22498 29.75 2.31948 29.666L7.71298 24.766C8.41847 24.1219 9.32772 23.7459 10.2821 23.7037C11.2365 23.6615 12.1754 23.9557 12.935 24.535L92.497 84.875C93.098 85.3311 93.8144 85.6104 94.5656 85.6814C95.3167 85.7524 96.0727 85.6123 96.7486 85.2769C97.4244 84.9415 97.9932 84.4242 98.391 83.783C98.7888 83.1419 98.9997 82.4025 99 81.648V81.9C98.9962 83.0488 98.6693 84.1733 98.0565 85.1451C97.4438 86.1168 96.57 86.8965 95.535 87.395Z"
                  fill="#007ACC"/>
            <path d="M75.354 97.1145C74.214 97.6625 72.932 97.843 71.685 97.6311C70.438 97.4192 69.2876 96.8253 68.3925 95.9315C68.8952 96.4276 69.533 96.7643 70.2261 96.8994C70.9193 97.0345 71.6369 96.9621 72.289 96.6911C72.9412 96.4202 73.4988 95.9628 73.8921 95.3763C74.2855 94.7898 74.4969 94.1002 74.5 93.394V4.60603C74.5006 3.89654 74.2906 3.20284 73.8966 2.61281C73.5026 2.02277 72.9424 1.56294 72.2868 1.29158C71.6313 1.02022 70.91 0.949526 70.2142 1.08846C69.5184 1.2274 68.8796 1.56971 68.3785 2.07204C69.2729 1.17723 70.4232 0.582416 71.6703 0.369858C72.9174 0.1573 74.1998 0.337499 75.34 0.885535L95.5175 10.5875C96.5587 11.0845 97.4382 11.8658 98.0544 12.8412C98.6706 13.8166 98.9984 14.9463 99 16.1V81.9C99.0003 83.0528 98.6749 84.1823 98.0612 85.1582C97.4476 86.1341 96.5706 86.9168 95.5315 87.416L75.354 97.1145Z"
                  fill="#1F9CF0"/>
        </g>
        <defs>
            <clipPath id="clip0_2_5879">
                <rect width="99" height="98" fill="white"/>
            </clipPath>
        </defs>
    </g>

    <g id="github">
        <path fill-rule="evenodd" clip-rule="evenodd"
              d="M44 0C19.69 0 0 19.69 0 44C0 63.47 12.595 79.915 30.085 85.745C32.285 86.13 33.11 84.81 33.11 83.655C33.11 82.61 33.055 79.145 33.055 75.46C22 77.495 19.14 72.765 18.26 70.29C17.765 69.025 15.62 65.12 13.75 64.075C12.21 63.25 10.01 61.215 13.695 61.16C17.16 61.105 19.635 64.35 20.46 65.67C24.42 72.325 30.745 70.455 33.275 69.3C33.66 66.44 34.815 64.515 36.08 63.415C26.29 62.315 16.06 58.52 16.06 41.69C16.06 36.905 17.765 32.945 20.57 29.865C20.13 28.765 18.59 24.255 21.01 18.205C21.01 18.205 24.695 17.05 33.11 22.715C36.63 21.725 40.37 21.23 44.11 21.23C47.85 21.23 51.59 21.725 55.11 22.715C63.525 16.995 67.21 18.205 67.21 18.205C69.63 24.255 68.09 28.765 67.65 29.865C70.455 32.945 72.16 36.85 72.16 41.69C72.16 58.575 61.875 62.315 52.085 63.415C53.68 64.79 55.055 67.43 55.055 71.555C55.055 77.44 55 82.17 55 83.655C55 84.81 55.825 86.185 58.025 85.745C66.7597 82.796 74.3497 77.1822 79.7268 69.6937C85.1039 62.2052 87.9974 53.219 88 44C88 19.69 68.31 0 44 0Z"
              fill="#FFFEFE"/>
    </g>

    <g id="styled">
        <g clip-path="url(#clip0_1_3263)">
            <path d="M68.7672 118.279C68.9472 117.872 69.4014 117.589 69.7314 117.246C74.7665 111.967 79.8444 106.735 84.811 101.391C86.3651 99.9558 87.5661 98.1804 88.3199 96.2036C89.0737 94.2269 89.36 92.1026 89.1562 89.9968C89.0003 89.0951 88.7957 88.2025 88.5434 87.3229C87.1893 88.6084 85.9294 89.7783 84.661 90.9567C82.6898 92.7908 80.7272 94.6334 78.7389 96.4461C77.5664 97.6415 76.0589 98.4531 74.4155 98.7737C72.772 99.0943 71.07 98.9087 69.5342 98.2416C67.9796 97.6705 66.6269 96.6553 65.6442 95.3221C64.6614 93.9889 64.0919 92.3965 64.0063 90.7425C63.9603 90.5297 63.8987 90.3206 63.8221 90.1168C62.3094 91.4024 60.861 92.5851 59.4254 93.8021L29.5875 119.085C29.3818 119.261 29.159 119.479 28.9662 119.65H68.7458L68.6858 119.612C68.4715 119.462 68.5829 118.673 68.7672 118.279Z"
                  fill="#FFCEBF"/>
            <path d="M27.1436 118.279C27.4974 117.818 27.9245 117.418 28.4077 117.096L69.7 82.0642C72.5168 79.6731 75.3207 77.2691 78.1118 74.8522C78.4567 74.6118 78.727 74.2791 78.8918 73.8924C79.5594 70.9831 79.654 67.9717 79.1703 65.0263C78.7418 65.3262 78.5104 65.4548 78.3132 65.6648C74.9322 68.6901 71.5683 71.7412 68.1702 74.7494C67.0445 75.8824 65.5885 76.6292 64.0116 76.8825C62.4346 77.1359 60.818 76.8826 59.3941 76.1592C57.9414 75.4734 56.7256 74.3709 55.9014 72.992C55.0773 71.6131 54.682 70.0201 54.766 68.4159V67.0275C54.1447 67.4817 53.6905 67.7859 53.2662 68.1287C36.7396 81.3615 20.2159 94.5842 3.69496 107.797C2.94933 108.393 2.05801 109.721 1.08098 108.431C0.103957 107.141 1.59092 106.61 2.34083 106.01C19.953 91.8774 37.5738 77.7576 55.2031 63.6507C58.0742 61.3496 58.2628 60.3854 56.3944 56.7301L55.2803 57.7757C52.2249 60.6168 49.1353 63.4193 46.1271 66.3075C44.8931 67.4978 43.3476 68.3148 41.6691 68.6641C39.9906 69.0135 38.2476 68.8809 36.6412 68.2818C35.0348 67.6827 33.6306 66.6415 32.5908 65.2784C31.5509 63.9153 30.9178 62.2858 30.7646 60.5782C30.1947 61.0067 29.7019 61.3196 29.2348 61.6838L3.09503 81.9443C2.64419 82.3864 2.13005 82.7591 1.5695 83.0498C1.14643 83.1777 0.692134 83.155 0.283936 82.9856V119.671H27.0922C26.9925 119.451 26.9453 119.21 26.9542 118.969C26.9631 118.727 27.028 118.491 27.1436 118.279Z"
                  fill="#FFCEBF"/>
            <path d="M99.5654 1.82096C98.8369 4.20782 98.1298 6.59897 97.4913 9.01154C96.9016 10.7164 96.9702 12.5802 97.6837 14.2371C98.3972 15.8941 99.7041 17.2246 101.348 17.9676C106.376 20.6107 112.043 21.798 117.709 21.3958V2.22806C117.646 1.80781 117.669 1.37914 117.777 0.968207C117.897 0.73576 118.049 0.520916 118.227 0.329712H99.5482C99.8353 0.663958 99.7368 1.25103 99.5654 1.82096Z"
                  fill="#FF6196"/>
            <path d="M62.0511 42.9976C61.9623 45.137 61.2139 47.1966 59.9085 48.894C55.242 54.9179 49.8829 60.3719 43.9418 65.1435C42.9837 66.0304 41.7694 66.591 40.473 66.745C39.1766 66.8989 37.8647 66.6383 36.7255 66.0005C35.5917 65.5161 34.6357 64.6925 33.9889 63.6428C33.342 62.5932 33.0361 61.369 33.1131 60.1384C33.2503 58.627 33.8779 57.202 34.9 56.0803C41.5435 49.7455 48.7415 44.019 56.4075 38.9695C56.9096 38.5758 57.5227 38.3499 58.1602 38.3237C58.7977 38.2976 59.4273 38.4725 59.9599 38.8238C60.66 39.2585 61.2259 39.8786 61.5951 40.6153C61.9642 41.352 62.122 42.1766 62.0511 42.9976Z"
                  fill="#FF87AF"/>
            <path d="M56.9127 68.97C56.8132 68.0228 56.9348 67.0654 57.2679 66.1731C57.6011 65.2809 58.1366 64.478 58.8325 63.8277C65.3374 57.8281 72.3164 52.3638 79.7014 47.4883C79.9243 47.3468 80.13 47.2054 80.3742 47.0597C81.0193 46.594 81.8009 46.356 82.596 46.3832C83.3912 46.4103 84.1547 46.7011 84.7665 47.2097C85.3585 47.7112 85.7774 48.3865 85.9635 49.1396C86.1497 49.8928 86.0937 50.6854 85.8036 51.4049C84.8693 54.5168 83.1449 57.3337 80.7984 59.5811C76.033 64.2758 71.1755 68.8762 66.2287 73.3795C65.4838 74.1456 64.5052 74.6422 63.447 74.7911C62.3889 74.9401 61.3112 74.7329 60.3837 74.2022C59.4091 73.6958 58.5792 72.9499 57.9721 72.0347C57.3649 71.1194 57.0004 70.0648 56.9127 68.97Z"
                  fill="#FF87AF"/>
            <path d="M87.8344 71.8015C86.6346 73.0871 85.4004 74.3126 84.2477 75.6282C83.9011 76.1367 83.6136 76.683 83.3907 77.2566C84.0249 77.4451 84.7662 77.9422 85.2804 77.7665C87.8987 76.888 90.4527 75.8339 93.3281 74.724C92.7024 76.1638 92.231 77.4922 91.5668 78.7092C88.8305 83.3078 85.4038 87.4587 81.4066 91.0164C79.8868 92.4819 78.3084 93.8832 76.6715 95.2201C75.8046 95.9395 74.7622 96.4157 73.6509 96.6001C72.5396 96.7844 71.3992 96.6702 70.3465 96.2692C69.2938 95.8681 68.3665 95.1947 67.6595 94.3176C66.9525 93.4406 66.4912 92.3916 66.3227 91.2778C66.254 90.6585 66.3087 90.0317 66.4838 89.4337C66.6589 88.8357 66.9507 88.2784 67.3426 87.7939C73.174 81.4614 79.8384 75.9503 87.1531 71.4115C87.242 71.3771 87.3363 71.3582 87.4316 71.3558L87.8344 71.8015Z"
                  fill="#FF87AF"/>
            <path d="M97.6724 54.7335L105.004 22.1659L110.147 23.37L107.494 31.4305C105.017 38.9296 102.51 46.4287 100.093 53.9364C99.6221 55.3248 99.0051 55.5819 97.6724 54.7335Z"
                  fill="#FF6196"/>
            <path d="M89.3859 73.8885C90.1615 70.9274 90.9328 68.1892 91.5842 65.421C92.219 62.7364 93.4264 60.2207 95.1238 58.0461C96.1651 56.6791 97.3349 57.2234 98.5305 57.519C99.6361 57.789 99.9146 58.5989 99.9618 59.6616C100.136 62.6005 99.2411 65.5031 97.4421 67.8335C95.3003 70.4887 92.5318 72.5695 89.3859 73.8885Z"
                  fill="#FF6196"/>
            <path d="M119.944 3.83936C120.008 2.88498 119.983 1.92674 119.871 0.976845C119.783 0.711516 119.607 0.483621 119.374 0.329779C119.184 0.175101 118.961 0.0652523 118.723 0.00838844C118.585 -0.0173228 118.393 0.124089 118.208 0.325493C118.03 0.516698 117.878 0.731542 117.758 0.96399C117.65 1.37492 117.627 1.80359 117.69 2.22384V21.3873C112.023 21.7895 106.357 20.6022 101.329 17.9591C99.685 17.2161 98.3781 15.8856 97.6646 14.2286C96.951 12.5717 96.8824 10.7079 97.4722 9.00304C98.1107 6.59046 98.8178 4.19932 99.5462 1.81246C99.7177 1.24253 99.8162 0.655454 99.5462 0.321208C99.3961 0.158494 99.1888 0.0602123 98.9677 0.0469556C98.6847 0.0500088 98.4105 0.146413 98.1878 0.321208C97.8674 0.512888 97.6121 0.796593 97.4551 1.1354C96.598 3.70652 95.8438 6.30336 95.1882 8.9259C94.9407 9.95936 94.874 11.0279 94.9911 12.0841C95.1569 13.9952 95.8676 15.8186 97.0389 17.3377C98.2102 18.8569 99.7928 20.0081 101.599 20.6545C102.409 20.993 102.884 21.3273 102.657 22.3943C102.344 23.7484 102.04 25.1026 101.732 26.461C99.632 35.6656 97.5436 44.8745 95.4667 54.0877C95.4082 54.4985 95.2275 54.8822 94.9482 55.189C93.5793 56.2771 92.4291 57.6148 91.5586 59.1314C90.4493 61.1327 89.6817 63.3052 89.2875 65.5592C89.2118 66.2782 88.952 66.9655 88.5331 67.5548C88.1143 68.144 87.5505 68.6153 86.8963 68.9231C85.1094 69.8273 83.4682 70.9971 81.4841 72.2141C81.6164 69.8282 81.5906 67.4361 81.407 65.0535C81.256 64.3206 81.288 63.5618 81.5003 62.8442C81.7126 62.1267 82.0985 61.4725 82.624 60.9397C85.2375 58.3506 87.1005 55.1015 88.0148 51.538C88.2878 50.712 88.3627 49.8333 88.2333 48.9729C88.104 48.1126 87.774 47.2948 87.27 46.5856C86.7661 45.8764 86.1023 45.2957 85.3325 44.8905C84.5626 44.4853 83.7081 44.267 82.8382 44.2531C81.4298 44.2374 80.047 44.6304 78.8573 45.3844C74.7683 48.1767 70.7504 51.0715 66.8073 54.0663C64.4633 55.8318 62.2564 57.7858 59.9852 59.637C59.8873 59.5319 59.8025 59.4154 59.7324 59.2899C59.689 58.9744 59.604 58.6661 59.4796 58.3729C57.5812 55.4418 58.8968 53.3121 60.958 51.1223C63.1053 48.8714 64.2919 45.8727 64.2661 42.7619C64.3327 41.1769 63.8363 39.6194 62.8649 38.3653C62.3474 37.7286 61.7096 37.2001 60.988 36.8097C59.9629 36.2487 58.7908 36.0145 57.6289 36.1386C56.467 36.2627 55.3708 36.7391 54.4873 37.5039L53.2917 38.361C50.5621 40.315 47.7981 42.2177 45.1713 44.3089C41.3364 47.3705 37.5841 50.5341 33.9183 53.7963C32.2042 55.309 30.953 57.3744 29.1746 58.78C19.9014 66.1034 10.5297 73.294 1.1922 80.5317C0.871132 80.7232 0.575909 80.9551 0.313735 81.2216C0.286745 81.2606 0.263774 81.3023 0.245172 81.3459C0.0480521 81.8044 -0.119071 82.5629 0.112331 82.8414C0.169054 82.9019 0.23761 82.95 0.313735 82.9828C0.721934 83.1523 1.17623 83.175 1.5993 83.0471C2.15985 82.7563 2.67399 82.3837 3.12483 81.9415L29.2646 61.6811C29.7317 61.3168 30.2245 60.9869 30.7944 60.5755C30.9476 62.2831 31.5807 63.9125 32.6206 65.2757C33.6604 66.6388 35.0646 67.68 36.671 68.2791C38.2774 68.8782 40.0204 69.0107 41.6989 68.6614C43.3774 68.312 44.9229 67.4951 46.1569 66.3048C49.1565 63.4166 52.2547 60.6141 55.3101 57.773L56.4242 56.7274C58.2926 60.3827 58.104 61.3468 55.2329 63.648C37.5893 77.7663 19.9585 91.8875 2.34064 106.012C1.59073 106.611 0.108046 107.156 1.08079 108.433C2.05353 109.71 2.94914 108.394 3.69476 107.798C20.2242 94.5972 36.7423 81.3787 53.2489 68.1432C53.6774 67.8003 54.1273 67.4961 54.7487 67.0419V68.4303C54.6647 70.0345 55.0599 71.6275 55.8841 73.0064C56.7082 74.3853 57.924 75.4879 59.3767 76.1736C60.8007 76.897 62.4173 77.1503 63.9942 76.897C65.5711 76.6436 67.0271 75.8968 68.1528 74.7638C71.551 71.7642 74.9149 68.7045 78.2959 65.6792C78.5102 65.4863 78.7587 65.3406 79.153 65.0407C79.6367 67.9861 79.542 70.9975 78.8744 73.9068C78.7096 74.2936 78.4394 74.6262 78.0945 74.8667C75.3005 77.2807 72.4966 79.6847 69.6826 82.0787L28.4075 117.115C27.9243 117.437 27.4972 117.836 27.1434 118.297C27.0305 118.507 26.9672 118.741 26.9582 118.979C26.9493 119.217 26.9951 119.455 27.092 119.673C27.2856 119.818 27.5094 119.917 27.7468 119.964C27.9842 120.011 28.2291 120.004 28.4633 119.943C28.648 119.889 28.8181 119.794 28.9603 119.664C29.1746 119.493 29.3889 119.274 29.5817 119.099L59.4196 93.8158C60.8551 92.5988 62.3035 91.399 63.8162 90.1306C63.8928 90.3343 63.9544 90.5434 64.0005 90.7562C64.0861 92.4102 64.6556 94.0027 65.6383 95.3358C66.6211 96.669 67.9737 97.6842 69.5284 98.2553C71.0641 98.9225 72.7662 99.108 74.4096 98.7874C76.053 98.4669 77.5606 97.6552 78.733 96.4598C80.7213 94.6472 82.684 92.8045 84.6552 90.9705C85.9407 89.792 87.1834 88.6093 88.5376 87.3366C88.7898 88.2162 88.9944 89.1089 89.1503 90.0106C89.3473 92.1094 89.0578 94.2253 88.3042 96.1941C87.5506 98.1628 86.3532 99.9313 84.8051 101.362C79.8386 106.71 74.7606 111.942 69.7255 117.217C69.3955 117.56 68.9413 117.843 68.7613 118.25C68.5813 118.657 68.4657 119.454 68.6799 119.626L68.7399 119.664C69.1892 119.883 69.6945 119.959 70.1883 119.883C70.3267 119.854 70.45 119.777 70.5354 119.664C70.6554 119.54 70.7711 119.386 70.8868 119.27C74.9663 115.053 79.0672 110.858 83.1168 106.611C84.7513 104.955 86.288 103.205 87.7191 101.371C89.5851 99.3049 90.8224 96.7492 91.2855 94.0042C91.7486 91.2591 91.4181 88.439 90.3331 85.8754C90.2164 85.3037 90.3304 84.7092 90.6502 84.2213C90.9287 83.7413 91.2372 83.2742 91.5543 82.8114C92.569 81.494 93.4141 80.0544 94.0698 78.5262C95.3368 74.7758 97.2817 71.2898 99.8076 68.2417C100.969 66.7695 101.768 65.0448 102.14 63.207C102.512 61.3692 102.447 59.4696 101.95 57.6616C101.775 56.9741 101.775 56.2535 101.95 55.5661C104.119 48.8512 106.351 42.1577 108.562 35.4599L111.519 26.4867L112.432 23.7142C114.377 23.7142 116.211 23.6756 118.037 23.7142C119.554 23.757 120.017 23.0457 120 21.5715C119.91 15.658 119.944 9.74866 119.944 3.83936ZM43.9371 65.1435C42.9791 66.0304 41.7647 66.591 40.4683 66.745C39.1719 66.8989 37.86 66.6383 36.7208 66.0006C35.587 65.5162 34.631 64.6925 33.9842 63.6429C33.3373 62.5932 33.0314 61.369 33.1084 60.1384C33.2457 58.6271 33.8732 57.202 34.8953 56.0803C41.5388 49.7455 48.7368 44.019 56.4028 38.9695C56.8212 38.6737 57.2972 38.4693 57.7998 38.3696C58.1369 38.3074 58.4825 38.3074 58.8196 38.3696C59.2234 38.4482 59.6086 38.6023 59.9552 38.8238C60.656 39.2588 61.2224 39.8796 61.5916 40.6171C61.9607 41.3547 62.1182 42.1802 62.0464 43.0019C61.9576 45.1413 61.2092 47.2009 59.9038 48.8983C55.237 54.9207 49.878 60.3733 43.9371 65.1435ZM66.2202 73.4097C65.4752 74.1758 64.4966 74.6724 63.4385 74.8213C62.3803 74.9703 61.3027 74.7631 60.3752 74.2324C59.3988 73.7249 58.5678 72.977 57.9605 72.0593C57.3533 71.1416 56.9897 70.0844 56.9042 68.9874C56.8047 68.0401 56.9263 67.0828 57.2594 66.1905C57.5925 65.2982 58.1281 64.4954 58.8239 63.8451C65.3288 57.8454 72.3078 52.3811 79.6929 47.5056C79.9157 47.3642 80.1214 47.2228 80.3657 47.0771C81.0107 46.6114 81.7923 46.3734 82.5875 46.4005C83.3826 46.4277 84.1462 46.7185 84.758 47.2271C85.35 47.7285 85.7688 48.4038 85.955 49.157C86.1412 49.9101 86.0852 50.7028 85.795 51.4223C84.8607 54.5342 83.1364 57.351 80.7899 59.5985C76.0633 64.3208 71.1482 68.8674 66.2288 73.3925L66.2202 73.4097ZM91.5501 78.7276C88.8175 83.319 85.3967 87.4638 81.407 91.0176C79.8872 92.4831 78.3088 93.8844 76.6718 95.2214C75.8049 95.9408 74.7625 96.417 73.6512 96.6013C72.5399 96.7856 71.3996 96.6714 70.3469 96.2704C69.2942 95.8694 68.3669 95.1959 67.6599 94.3189C66.9529 93.4419 66.4915 92.3928 66.323 91.279C66.2543 90.6597 66.3091 90.0329 66.4842 89.435C66.6592 88.837 66.9511 88.2796 67.3429 87.7951C73.1743 81.4627 79.8387 75.9515 87.1534 71.4128C87.2424 71.3783 87.3366 71.3594 87.432 71.3571L87.8605 71.7856C86.6606 73.0712 85.4265 74.2967 84.2738 75.6123C83.9272 76.1208 83.6396 76.6671 83.4167 77.2407C84.0509 77.4292 84.7923 77.9263 85.3065 77.7506C87.3763 77.0564 89.4117 76.2508 91.5929 75.3937L93.3541 74.7081C92.6942 76.1651 92.2228 77.4935 91.5586 78.7105L91.5501 78.7276ZM97.4336 67.8646C95.8352 69.8996 93.8317 71.5806 91.5501 72.8012C90.8444 73.1954 90.1202 73.564 89.3775 73.9068C90.1402 70.9885 90.903 68.2846 91.5501 65.5506L91.5758 65.4392C92.2106 62.7546 93.418 60.2389 95.1153 58.0644C96.1566 56.6974 97.3265 57.2416 98.5221 57.5373C99.6277 57.8073 99.9062 58.6172 99.9533 59.6799C100.129 62.6162 99.2372 65.5171 97.4422 67.8475L97.4336 67.8646ZM107.461 31.4404C104.984 38.9395 102.477 46.4386 100.06 53.9463C99.6062 55.3561 98.9892 55.6132 97.6565 54.7648L104.011 26.5124L104.988 22.1758L110.131 23.3799L109.098 26.5124L107.461 31.4404Z"
                  fill="black"/>
        </g>
        <defs>
            <clipPath id="clip0_1_3263">
                <rect width="120" height="120" fill="white"/>
            </clipPath>
        </defs>
    </g>

    <g id="typeScript">
        <path d="M0 60V120H60H120V60V0H60H0V60Z" fill="#007ACC"/>
        <path d="M26.5374 60.3979L26.4993 65.3122H34.3088H42.1184L42.1184 87.5026V109.693H47.6422H53.166V87.5026L53.166 65.3122H60.9755H68.785V60.4931C68.785 57.8264 68.7279 55.5979 68.6517 55.5407C68.5946 55.4645 59.0898 55.4264 47.566 55.4455L26.5946 55.5026L26.5374 60.3979Z"
              fill="white"/>
        <path d="M96.8264 55.3636C99.874 56.1255 102.198 57.4779 104.331 59.6874C105.436 60.8684 107.074 63.0208 107.207 63.535C107.245 63.6874 102.026 67.1922 98.8644 69.1541C98.7502 69.2303 98.293 68.7351 97.7787 67.9731C96.2359 65.7255 94.6168 64.7541 92.1406 64.5827C88.5025 64.335 86.1597 66.2398 86.1787 69.4208C86.1787 70.3541 86.3121 70.9065 86.693 71.6684C87.493 73.3255 88.9787 74.316 93.6454 76.3351C102.236 80.0303 105.912 82.4684 108.198 85.935C110.75 89.8017 111.322 95.9731 109.588 100.564C107.683 105.554 102.96 108.945 96.3121 110.068C94.2549 110.43 89.3787 110.373 87.1692 109.973C82.3502 109.116 77.7787 106.735 74.9597 103.611C73.8549 102.392 71.7025 99.2112 71.8359 98.9827C71.893 98.9065 72.3883 98.6017 72.9406 98.2779C73.474 97.9731 75.493 96.8112 77.3978 95.7065L80.8454 93.7065L81.5692 94.7731C82.5787 96.316 84.7883 98.4303 86.1216 99.135C89.9502 101.154 95.2073 100.868 97.7978 98.5446C98.9025 97.535 99.3597 96.4874 99.3597 94.9446C99.3597 93.5541 99.1883 92.9446 98.4644 91.897C97.5311 90.5636 95.6263 89.4398 90.2168 87.097C84.0263 84.4303 81.3597 82.7731 78.9216 80.1446C77.5121 78.6208 76.1787 76.1827 75.6264 74.1446C75.1692 72.4493 75.0549 68.2017 75.4168 66.4874C76.693 60.5065 81.2073 56.335 87.7216 55.097C89.8359 54.697 94.7502 54.8493 96.8264 55.3636Z"
              fill="white"/>
    </g>

    <!--social-->

    <g id="socialGithub">
        <path fill="#fff" d="M41,24c0,9.4-7.6,17-17,17S7,33.4,7,24S14.6,7,24,7S41,14.6,41,24z"/>
        <path fill="#455a64"
              d="M21 41v-5.5c0-.3.2-.5.5-.5s.5.2.5.5V41h2v-6.5c0-.3.2-.5.5-.5s.5.2.5.5V41h2v-5.5c0-.3.2-.5.5-.5s.5.2.5.5V41h1.8c.2-.3.2-.6.2-1.1V36c0-2.2-1.9-5.2-4.3-5.2h-2.5c-2.3 0-4.3 3.1-4.3 5.2v3.9c0 .4.1.8.2 1.1L21 41 21 41zM40.1 26.4C40.1 26.4 40.1 26.4 40.1 26.4c0 0-1.3-.4-2.4-.4 0 0-.1 0-.1 0-1.1 0-2.9.3-2.9.3-.1 0-.1 0-.1-.1 0-.1 0-.1.1-.1.1 0 2-.3 3.1-.3 1.1 0 2.4.4 2.5.4.1 0 .1.1.1.2C40.2 26.3 40.2 26.4 40.1 26.4zM39.8 27.2C39.8 27.2 39.8 27.2 39.8 27.2c0 0-1.4-.4-2.6-.4-.9 0-3 .2-3.1.2-.1 0-.1 0-.1-.1 0-.1 0-.1.1-.1.1 0 2.2-.2 3.1-.2 1.3 0 2.6.4 2.6.4.1 0 .1.1.1.2C39.9 27.1 39.9 27.2 39.8 27.2zM7.8 26.4c-.1 0-.1 0-.1-.1 0-.1 0-.1.1-.2.8-.2 2.4-.5 3.3-.5.8 0 3.5.2 3.6.2.1 0 .1.1.1.1 0 .1-.1.1-.1.1 0 0-2.7-.2-3.5-.2C10.1 26 8.6 26.2 7.8 26.4 7.8 26.4 7.8 26.4 7.8 26.4zM8.2 27.9c0 0-.1 0-.1-.1 0-.1 0-.1 0-.2.1 0 1.4-.8 2.9-1 1.3-.2 4 .1 4.2.1.1 0 .1.1.1.1 0 .1-.1.1-.1.1 0 0 0 0 0 0 0 0-2.8-.3-4.1-.1C9.6 27.1 8.2 27.9 8.2 27.9 8.2 27.9 8.2 27.9 8.2 27.9z"/>
        <path fill="#455a64"
              d="M14.2,23.5c0-4.4,4.6-8.5,10.3-8.5c5.7,0,10.3,4,10.3,8.5S31.5,31,24.5,31S14.2,27.9,14.2,23.5z"/>
        <path fill="#455a64"
              d="M28.6 16.3c0 0 1.7-2.3 4.8-2.3 1.2 1.2.4 4.8 0 5.8L28.6 16.3zM20.4 16.3c0 0-1.7-2.3-4.8-2.3-1.2 1.2-.4 4.8 0 5.8L20.4 16.3zM20.1 35.9c0 0-2.3 0-2.8 0-1.2 0-2.3-.5-2.8-1.5-.6-1.1-1.1-2.3-2.6-3.3-.3-.2-.1-.4.4-.4.5.1 1.4.2 2.1 1.1.7.9 1.5 2 2.8 2 1.3 0 2.7 0 3.5-.9L20.1 35.9z"/>
        <path fill="#00bcd4"
              d="M24,4C13,4,4,13,4,24s9,20,20,20s20-9,20-20S35,4,24,4z M24,40c-8.8,0-16-7.2-16-16S15.2,8,24,8 s16,7.2,16,16S32.8,40,24,40z"/>

    </g>

    <g id="socialLinkedin">
        <path fill="#0288D1"
              d="M42,37c0,2.762-2.238,5-5,5H11c-2.761,0-5-2.238-5-5V11c0-2.762,2.239-5,5-5h26c2.762,0,5,2.238,5,5V37z"/>
        <path fill="#FFF"
              d="M12 19H17V36H12zM14.485 17h-.028C12.965 17 12 15.888 12 14.499 12 13.08 12.995 12 14.514 12c1.521 0 2.458 1.08 2.486 2.499C17 15.887 16.035 17 14.485 17zM36 36h-5v-9.099c0-2.198-1.225-3.698-3.192-3.698-1.501 0-2.313 1.012-2.707 1.99C24.957 25.543 25 26.511 25 27v9h-5V19h5v2.616C25.721 20.5 26.85 19 29.738 19c3.578 0 6.261 2.25 6.261 7.274L36 36 36 36z"/>
    </g>

    <g id="socialTelegram">
        <path fill="#29b6f6" d="M24 4A20 20 0 1 0 24 44A20 20 0 1 0 24 4Z"/>
        <path fill="#fff"
              d="M33.95,15l-3.746,19.126c0,0-0.161,0.874-1.245,0.874c-0.576,0-0.873-0.274-0.873-0.274l-8.114-6.733 l-3.97-2.001l-5.095-1.355c0,0-0.907-0.262-0.907-1.012c0-0.625,0.933-0.923,0.933-0.923l21.316-8.468 c-0.001-0.001,0.651-0.235,1.126-0.234C33.667,14,34,14.125,34,14.5C34,14.75,33.95,15,33.95,15z"/>
        <path fill="#b0bec5"
              d="M23,30.505l-3.426,3.374c0,0-0.149,0.115-0.348,0.12c-0.069,0.002-0.143-0.009-0.219-0.043 l0.964-5.965L23,30.505z"/>
        <path fill="#cfd8dc"
              d="M29.897,18.196c-0.169-0.22-0.481-0.26-0.701-0.093L16,26c0,0,2.106,5.892,2.427,6.912 c0.322,1.021,0.58,1.045,0.58,1.045l0.964-5.965l9.832-9.096C30.023,18.729,30.064,18.416,29.897,18.196z"/>
    </g>

</svg>
